M48
; DRILL file {KiCad (6.0.0-rc1-dev-1289-g6d8ca311f)} date 30.12.2018 23:21:14
; FORMAT={-:-/ absolute / inch / decimal}
; #@! TF.CreationDate,2018-12-30T23:21:14+01:00
; #@! TF.GenerationSoftware,Kicad,Pcbnew,(6.0.0-rc1-dev-1289-g6d8ca311f)
FMAT,2
INCH
T1C0.0236
T2C0.0276
T3C0.0300
T4C0.0315
T5C0.0354
T6C0.0394
T7C0.0433
T8C0.0472
T9C0.0551
T10C0.0591
T11C0.0906
T12C0.1220
T13C0.1260
T14C0.1260
T15C0.1378
%
G90
G05
T1
X2.68Y-3.16
X2.78Y-2.9
X2.84Y-2.8
X3.34Y-2.02
X3.58Y-2.02
X3.58Y-2.81
X3.74Y-2.52
X3.74Y-2.62
X3.78Y-2.81
X3.86Y-2.8
X3.9Y-2.84
X4.1723Y-2.72
X4.22Y-2.42
X4.76Y-2.6
X5.24Y-2.18
X5.24Y-2.5
X5.24Y-2.68
X5.24Y-2.86
X5.24Y-3.0
X5.2518Y-2.4282
X5.5534Y-2.9866
X5.5534Y-3.1266
X6.52Y-3.0
X6.52Y-3.32
T2
X7.5509Y-2.0265
X7.5509Y-2.125
X8.65Y-2.2644
X8.65Y-2.3628
X8.1Y-2.8
X8.1984Y-2.8
X8.65Y-2.5016
X8.65Y-2.6
X6.655Y-2.26
X6.655Y-2.3584
X7.5509Y-1.8
X7.5509Y-1.8984
T3
X2.5Y-2.8
X2.5Y-2.9
X2.5Y-3.0
X2.5Y-3.1
X2.6Y-2.8
X2.6Y-2.9
X2.6Y-3.0
X2.6Y-3.1
T4
X4.98Y-1.98
X5.26Y-1.98
X6.22Y-3.8
X8.0Y-1.52
X8.0Y-2.04
X8.08Y-1.52
X8.08Y-2.04
X8.16Y-1.52
X8.16Y-2.04
X8.24Y-1.52
X8.24Y-2.04
X8.32Y-1.52
X8.32Y-2.04
X8.4Y-1.52
X8.4Y-2.04
X8.48Y-1.52
X8.48Y-2.04
X8.56Y-1.52
X8.56Y-2.04
X8.64Y-1.52
X8.64Y-2.04
X8.68Y-1.62
X8.68Y-1.7
X8.68Y-1.78
X8.68Y-1.86
X8.68Y-1.94
X4.2Y-2.24
X4.8428Y-1.474
X6.84Y-1.72
X6.84Y-2.12
X8.3Y-2.8
X8.7Y-2.8
X4.37Y-3.03
X4.37Y-3.43
X2.36Y-3.44
X2.76Y-3.44
X6.655Y-2.5
X6.655Y-2.5984
X5.745Y-2.28
X5.745Y-2.58
X5.845Y-2.28
X5.845Y-2.58
X5.945Y-2.28
X5.945Y-2.58
X6.045Y-2.28
X6.045Y-2.58
X6.145Y-2.28
X6.145Y-2.58
X6.245Y-2.28
X6.245Y-2.58
X6.345Y-2.28
X6.345Y-2.58
X6.445Y-2.28
X6.445Y-2.58
X7.6Y-2.8
X8.0Y-2.8
X4.84Y-1.66
X4.84Y-2.06
X2.48Y-2.46
X2.5784Y-2.46
X2.36Y-3.32
X2.76Y-3.32
X5.785Y-2.78
X5.8834Y-2.78
X3.26Y-2.14
X3.66Y-2.14
X8.8416Y-2.75
X8.94Y-2.75
X5.44Y-2.8
X5.44Y-3.2
X9.1616Y-2.25
X9.26Y-2.25
X4.46Y-2.9
X4.8225Y-3.069
X6.3166Y-2.78
X6.415Y-2.78
X6.1Y-3.54
X6.5Y-3.54
X4.68Y-2.2
X4.68Y-2.6
X6.0466Y-2.78
X6.145Y-2.78
T5
X4.3Y-2.65
X4.4Y-2.65
X7.05Y-1.81
X7.05Y-2.11
X5.38Y-2.5
X5.48Y-2.5
X5.2Y-1.66
X5.3Y-1.66
T6
X5.85Y-1.9
X5.9045Y-1.7882
X5.9591Y-1.9
X6.0136Y-1.7882
X6.0681Y-1.9
X6.1226Y-1.7882
X6.1772Y-1.9
X6.2317Y-1.7882
X6.2862Y-1.9
X7.26Y-2.16
X5.69Y-2.15
X3.18Y-2.4
X3.18Y-2.6992
X5.18Y-1.86
X5.28Y-3.2
X5.36Y-1.86
X7.22Y-1.68
X7.32Y-1.68
X7.3999Y-1.68
X7.4999Y-1.68
X6.85Y-1.52
X5.605Y-2.78
X9.38Y-2.56
X9.38Y-2.66
X9.38Y-2.76
X3.775Y-2.075
X7.26Y-1.92
X3.9726Y-2.0771
X3.9726Y-2.1771
X3.9726Y-2.2771
X3.9726Y-2.3771
X3.9726Y-2.4771
X3.9726Y-2.5771
X3.9726Y-2.6771
X3.9726Y-2.7771
X3.9726Y-2.8771
X3.9726Y-2.9771
X3.9726Y-3.0771
X3.9726Y-3.1771
X3.9726Y-3.2771
X4.0726Y-2.0771
X4.0726Y-2.1771
X4.0726Y-2.2771
X4.0726Y-2.3771
X4.0726Y-2.4771
X4.0726Y-2.5771
X4.0726Y-2.6771
X4.0726Y-2.7771
X4.0726Y-2.8771
X4.0726Y-2.9771
X4.0726Y-3.0771
X4.0726Y-3.1771
X4.0726Y-3.2771
X4.9723Y-2.0774
X4.9723Y-2.1774
X4.9723Y-2.2774
X4.9723Y-2.3774
X4.9723Y-2.4774
X4.9723Y-2.5774
X4.9723Y-2.6774
X4.9723Y-2.7774
X4.9723Y-2.8774
X4.9723Y-2.9774
X4.9723Y-3.0774
X4.9723Y-3.1774
X4.9723Y-3.2774
X5.0723Y-2.0774
X5.0723Y-2.1774
X5.0723Y-2.2774
X5.0723Y-2.3774
X5.0723Y-2.4774
X5.0723Y-2.5774
X5.0723Y-2.6774
X5.0723Y-2.7774
X5.0723Y-2.8774
X5.0723Y-2.9774
X5.0723Y-3.0774
X5.0723Y-3.1774
X5.0723Y-3.2774
X9.59Y-2.64
X9.59Y-2.74
X2.86Y-3.16
X5.605Y-2.585
X5.84Y-2.15
T7
X8.145Y-4.515
X8.145Y-4.915
X8.195Y-4.615
X8.195Y-4.8119
X8.3919Y-4.615
X8.3919Y-4.8119
X8.445Y-4.515
X8.445Y-4.915
X8.745Y-3.765
X8.745Y-4.165
X8.795Y-3.865
X8.795Y-4.0619
X8.9919Y-3.865
X8.9919Y-4.0619
X9.045Y-3.765
X9.045Y-4.165
X6.945Y-3.765
X6.945Y-4.165
X6.995Y-3.865
X6.995Y-4.0619
X7.1919Y-3.865
X7.1919Y-4.0619
X7.245Y-3.765
X7.245Y-4.165
X8.145Y-5.265
X8.145Y-5.665
X8.195Y-5.365
X8.195Y-5.5619
X8.3919Y-5.365
X8.3919Y-5.5619
X8.445Y-5.265
X8.445Y-5.665
X9.12Y-2.44
X9.12Y-2.84
X7.545Y-3.015
X7.545Y-3.415
X7.595Y-3.115
X7.595Y-3.3119
X7.7919Y-3.115
X7.7919Y-3.3119
X7.845Y-3.015
X7.845Y-3.415
X8.745Y-4.515
X8.745Y-4.915
X8.795Y-4.615
X8.795Y-4.8119
X8.9919Y-4.615
X8.9919Y-4.8119
X9.045Y-4.515
X9.045Y-4.915
X6.945Y-4.515
X6.945Y-4.915
X6.995Y-4.615
X6.995Y-4.8119
X7.1919Y-4.615
X7.1919Y-4.8119
X7.245Y-4.515
X7.245Y-4.915
X7.545Y-3.765
X7.545Y-4.165
X7.595Y-3.865
X7.595Y-4.0619
X7.7919Y-3.865
X7.7919Y-4.0619
X7.845Y-3.765
X7.845Y-4.165
X8.4504Y-2.36
X8.4504Y-2.46
X8.4504Y-2.56
X8.745Y-5.265
X8.745Y-5.665
X8.795Y-5.365
X8.795Y-5.5619
X8.9919Y-5.365
X8.9919Y-5.5619
X9.045Y-5.265
X9.045Y-5.665
X8.145Y-3.015
X8.145Y-3.415
X8.195Y-3.115
X8.195Y-3.3119
X8.3919Y-3.115
X8.3919Y-3.3119
X8.445Y-3.015
X8.445Y-3.415
X6.945Y-5.265
X6.945Y-5.665
X6.995Y-5.365
X6.995Y-5.5619
X7.1919Y-5.365
X7.1919Y-5.5619
X7.245Y-5.265
X7.245Y-5.665
X6.34Y-5.265
X6.34Y-5.665
X6.39Y-5.365
X6.39Y-5.5619
X6.5869Y-5.365
X6.5869Y-5.5619
X6.64Y-5.265
X6.64Y-5.665
X7.545Y-4.515
X7.545Y-4.915
X7.595Y-4.615
X7.595Y-4.8119
X7.7919Y-4.615
X7.7919Y-4.8119
X7.845Y-4.515
X7.845Y-4.915
X8.145Y-3.765
X8.145Y-4.165
X8.195Y-3.865
X8.195Y-4.0619
X8.3919Y-3.865
X8.3919Y-4.0619
X8.445Y-3.765
X8.445Y-4.165
X7.8409Y-1.6765
X7.8409Y-1.7765
X7.8409Y-1.8765
X8.745Y-3.015
X8.745Y-3.415
X8.795Y-3.115
X8.795Y-3.3119
X8.9919Y-3.115
X8.9919Y-3.3119
X9.045Y-3.015
X9.045Y-3.415
X7.545Y-5.265
X7.545Y-5.665
X7.595Y-5.365
X7.595Y-5.5619
X7.7919Y-5.365
X7.7919Y-5.5619
X7.845Y-5.265
X7.845Y-5.665
X6.945Y-3.015
X6.945Y-3.415
X6.995Y-3.115
X6.995Y-3.3119
X7.1919Y-3.115
X7.1919Y-3.3119
X7.245Y-3.015
X7.245Y-3.415
T8
X7.175Y-2.46
X7.175Y-2.6569
X2.555Y-3.625
X2.655Y-3.625
X2.755Y-3.625
X2.855Y-3.625
X2.955Y-3.625
X3.055Y-3.625
X3.155Y-3.625
X3.255Y-3.625
X3.355Y-3.625
X3.455Y-3.625
X3.555Y-3.625
X3.655Y-3.625
X3.755Y-3.625
X3.855Y-3.625
X3.955Y-3.625
X4.055Y-3.625
T9
X8.91Y-1.945
X8.91Y-2.445
T10
X9.38Y-4.54
X9.38Y-5.4298
X9.38Y-3.08
X9.38Y-3.9698
X1.92Y-4.5302
X1.92Y-5.42
T11
X7.0798Y-1.5749
X7.62Y-1.5749
T12
X2.2598Y-3.625
X2.2598Y-5.7904
X5.9211Y-5.7904
X5.9211Y-3.625
T13
X5.576Y-1.8441
X6.5602Y-1.8441
T14
X6.3Y-4.3
X1.9Y-5.65
X1.9Y-1.95
X9.45Y-4.3
X1.9Y-4.3
X9.45Y-1.95
X9.45Y-5.65
T15
X7.7945Y-2.46
X8.4968Y-1.7765
T6
G00X9.0194Y-1.5138
M15
G01X8.9406Y-1.5138
M16
G05
G00X9.0194Y-1.75
M15
G01X8.9406Y-1.75
M16
G05
G00X9.165Y-1.5925
M15
G01X9.165Y-1.6713
M16
G05
T0
M30
