G04 #@! TF.GenerationSoftware,KiCad,Pcbnew,(6.0.0-rc1-dev-1289-g6d8ca311f)*
G04 #@! TF.CreationDate,2018-12-30T23:18:29+01:00
G04 #@! TF.ProjectId,CT800_PCB,43543830-305f-4504-9342-2e6b69636164,rev?*
G04 #@! TF.SameCoordinates,Original*
G04 #@! TF.FileFunction,Copper,L1,Top*
G04 #@! TF.FilePolarity,Positive*
%FSLAX46Y46*%
G04 Gerber Fmt 4.6, Leading zero omitted, Abs format (unit mm)*
G04 Created by KiCad (PCBNEW (6.0.0-rc1-dev-1289-g6d8ca311f)) date 30.12.2018 23:18:29*
%MOMM*%
%LPD*%
G01*
G04 APERTURE LIST*
G04 #@! TA.AperFunction,ComponentPad*
%ADD10C,1.600000*%
G04 #@! TD*
G04 #@! TA.AperFunction,Conductor*
%ADD11C,1.600000*%
G04 #@! TD*
G04 #@! TA.AperFunction,SMDPad,CuDef*
%ADD12R,1.000000X1.500000*%
G04 #@! TD*
G04 #@! TA.AperFunction,SMDPad,CuDef*
%ADD13R,1.500000X1.000000*%
G04 #@! TD*
G04 #@! TA.AperFunction,ComponentPad*
%ADD14R,1.700000X1.700000*%
G04 #@! TD*
G04 #@! TA.AperFunction,ComponentPad*
%ADD15C,3.000000*%
G04 #@! TD*
G04 #@! TA.AperFunction,ComponentPad*
%ADD16O,1.600000X1.600000*%
G04 #@! TD*
G04 #@! TA.AperFunction,ComponentPad*
%ADD17O,1.700000X1.700000*%
G04 #@! TD*
G04 #@! TA.AperFunction,ComponentPad*
%ADD18C,3.100000*%
G04 #@! TD*
G04 #@! TA.AperFunction,ComponentPad*
%ADD19O,1.800000X2.600000*%
G04 #@! TD*
G04 #@! TA.AperFunction,ComponentPad*
%ADD20R,1.800000X2.600000*%
G04 #@! TD*
G04 #@! TA.AperFunction,ComponentPad*
%ADD21O,1.600000X2.400000*%
G04 #@! TD*
G04 #@! TA.AperFunction,ComponentPad*
%ADD22R,1.600000X2.400000*%
G04 #@! TD*
G04 #@! TA.AperFunction,ComponentPad*
%ADD23O,2.000000X1.905000*%
G04 #@! TD*
G04 #@! TA.AperFunction,ComponentPad*
%ADD24R,2.000000X1.905000*%
G04 #@! TD*
G04 #@! TA.AperFunction,ComponentPad*
%ADD25C,4.000000*%
G04 #@! TD*
G04 #@! TA.AperFunction,ComponentPad*
%ADD26R,1.600000X1.600000*%
G04 #@! TD*
G04 #@! TA.AperFunction,Conductor*
%ADD27C,0.100000*%
G04 #@! TD*
G04 #@! TA.AperFunction,ComponentPad*
%ADD28C,3.500000*%
G04 #@! TD*
G04 #@! TA.AperFunction,ComponentPad*
%ADD29R,3.500000X3.500000*%
G04 #@! TD*
G04 #@! TA.AperFunction,ComponentPad*
%ADD30C,1.800000*%
G04 #@! TD*
G04 #@! TA.AperFunction,ComponentPad*
%ADD31R,1.800000X1.800000*%
G04 #@! TD*
G04 #@! TA.AperFunction,ComponentPad*
%ADD32O,1.800000X1.800000*%
G04 #@! TD*
G04 #@! TA.AperFunction,ComponentPad*
%ADD33O,2.800000X2.800000*%
G04 #@! TD*
G04 #@! TA.AperFunction,ComponentPad*
%ADD34R,2.800000X2.800000*%
G04 #@! TD*
G04 #@! TA.AperFunction,ComponentPad*
%ADD35O,2.200000X2.200000*%
G04 #@! TD*
G04 #@! TA.AperFunction,ComponentPad*
%ADD36R,2.200000X2.200000*%
G04 #@! TD*
G04 #@! TA.AperFunction,ComponentPad*
%ADD37C,1.400000*%
G04 #@! TD*
G04 #@! TA.AperFunction,ComponentPad*
%ADD38C,2.400000*%
G04 #@! TD*
G04 #@! TA.AperFunction,ComponentPad*
%ADD39R,2.400000X2.400000*%
G04 #@! TD*
G04 #@! TA.AperFunction,ComponentPad*
%ADD40C,2.000000*%
G04 #@! TD*
G04 #@! TA.AperFunction,ComponentPad*
%ADD41R,2.000000X2.000000*%
G04 #@! TD*
G04 #@! TA.AperFunction,ComponentPad*
%ADD42C,1.524000*%
G04 #@! TD*
G04 #@! TA.AperFunction,ComponentPad*
%ADD43C,1.500000*%
G04 #@! TD*
G04 #@! TA.AperFunction,ViaPad*
%ADD44C,1.000000*%
G04 #@! TD*
G04 #@! TA.AperFunction,ViaPad*
%ADD45C,1.400000*%
G04 #@! TD*
G04 #@! TA.AperFunction,Conductor*
%ADD46C,0.500000*%
G04 #@! TD*
G04 #@! TA.AperFunction,Conductor*
%ADD47C,1.000000*%
G04 #@! TD*
G04 #@! TA.AperFunction,Conductor*
%ADD48C,0.400000*%
G04 #@! TD*
G04 #@! TA.AperFunction,Conductor*
%ADD49C,0.254000*%
G04 #@! TD*
G04 APERTURE END LIST*
D10*
G04 #@! TO.P,R13,2*
G04 #@! TO.N,+5V*
X123006805Y-37438471D03*
D11*
G04 #@! TD*
G04 #@! TO.N,+5V*
G04 #@! TO.C,R13*
X123006805Y-37438471D02*
X123006805Y-37438471D01*
D10*
G04 #@! TO.P,R13,1*
G04 #@! TO.N,Net-(R13-Pad1)*
X106680000Y-56896000D03*
G04 #@! TD*
D12*
G04 #@! TO.P,JP1,1*
G04 #@! TO.N,GND*
X122286000Y-66040000D03*
G04 #@! TO.P,JP1,2*
G04 #@! TO.N,Net-(JP1-Pad2)*
X123586000Y-66040000D03*
G04 #@! TD*
D13*
G04 #@! TO.P,JP3,1*
G04 #@! TO.N,GND*
X133096000Y-69454000D03*
G04 #@! TO.P,JP3,2*
G04 #@! TO.N,Net-(JP3-Pad2)*
X133096000Y-70754000D03*
G04 #@! TD*
D14*
G04 #@! TO.P,J4,1*
G04 #@! TO.N,Net-(J4-Pad1)*
X95885000Y-52705000D03*
G04 #@! TD*
G04 #@! TO.P,J3,1*
G04 #@! TO.N,Net-(J3-Pad1)*
X134112000Y-81280000D03*
G04 #@! TD*
D15*
G04 #@! TO.P,F3,2*
G04 #@! TO.N,+5V*
X238252000Y-100832000D03*
G04 #@! TO.P,F3,1*
G04 #@! TO.N,Net-(F3-Pad1)*
X238252000Y-78232000D03*
G04 #@! TD*
D16*
G04 #@! TO.P,R6,2*
G04 #@! TO.N,Net-(BZ1-Pad1)*
X82804000Y-54356000D03*
D10*
G04 #@! TO.P,R6,1*
G04 #@! TO.N,Net-(R6-Pad1)*
X92964000Y-54356000D03*
G04 #@! TD*
D13*
G04 #@! TO.P,JP4,1*
G04 #@! TO.N,GND*
X133096000Y-74026000D03*
G04 #@! TO.P,JP4,2*
G04 #@! TO.N,Net-(JP4-Pad2)*
X133096000Y-75326000D03*
G04 #@! TD*
G04 #@! TO.P,JP2,1*
G04 #@! TO.N,GND*
X133096000Y-65024000D03*
G04 #@! TO.P,JP2,2*
G04 #@! TO.N,Net-(JP2-Pad2)*
X133096000Y-66324000D03*
G04 #@! TD*
D17*
G04 #@! TO.P,U1,26*
G04 #@! TO.N,LED_ERR*
X128835754Y-83245949D03*
G04 #@! TO.P,U1,25*
G04 #@! TO.N,N/C*
X126295754Y-83245949D03*
G04 #@! TO.P,U1,24*
G04 #@! TO.N,Net-(J3-Pad1)*
X128835754Y-80705949D03*
G04 #@! TO.P,U1,23*
G04 #@! TO.N,VBAT*
X126295754Y-80705949D03*
G04 #@! TO.P,U1,22*
G04 #@! TO.N,Net-(JP4-Pad2)*
X128835754Y-78165949D03*
G04 #@! TO.P,U1,21*
G04 #@! TO.N,LED_OK*
X126295754Y-78165949D03*
G04 #@! TO.P,U1,20*
G04 #@! TO.N,KEY_ROW_2*
X128835754Y-75625949D03*
G04 #@! TO.P,U1,19*
G04 #@! TO.N,KEY_ROW_1*
X126295754Y-75625949D03*
G04 #@! TO.P,U1,18*
G04 #@! TO.N,Net-(JP3-Pad2)*
X128835754Y-73085949D03*
G04 #@! TO.P,U1,17*
G04 #@! TO.N,DISP_D2*
X126295754Y-73085949D03*
G04 #@! TO.P,U1,16*
G04 #@! TO.N,DISP_D1*
X128835754Y-70545949D03*
G04 #@! TO.P,U1,15*
G04 #@! TO.N,DISP_D0*
X126295754Y-70545949D03*
G04 #@! TO.P,U1,14*
G04 #@! TO.N,Net-(JP2-Pad2)*
X128835754Y-68005949D03*
G04 #@! TO.P,U1,13*
G04 #@! TO.N,DISP_EN*
X126295754Y-68005949D03*
G04 #@! TO.P,U1,12*
G04 #@! TO.N,DISP_RS*
X128835754Y-65465949D03*
G04 #@! TO.P,U1,11*
G04 #@! TO.N,Net-(JP1-Pad2)*
X126295754Y-65465949D03*
G04 #@! TO.P,U1,10*
G04 #@! TO.N,ESP_RST*
X128835754Y-62925949D03*
G04 #@! TO.P,U1,9*
G04 #@! TO.N,UART3_RX*
X126295754Y-62925949D03*
G04 #@! TO.P,U1,8*
G04 #@! TO.N,UART3_TX*
X128835754Y-60385949D03*
G04 #@! TO.P,U1,7*
G04 #@! TO.N,UART1_RX*
X126295754Y-60385949D03*
G04 #@! TO.P,U1,6*
G04 #@! TO.N,GND*
X128835754Y-57845949D03*
G04 #@! TO.P,U1,5*
G04 #@! TO.N,+3V3*
X126295754Y-57845949D03*
G04 #@! TO.P,U1,4*
G04 #@! TO.N,UART1_TX*
X128835754Y-55305949D03*
G04 #@! TO.P,U1,3*
G04 #@! TO.N,N/C*
X126295754Y-55305949D03*
G04 #@! TO.P,U1,2*
G04 #@! TO.N,ESP_EN*
X128835754Y-52765949D03*
D14*
G04 #@! TO.P,U1,1*
G04 #@! TO.N,N/C*
X126295754Y-52765949D03*
D17*
G04 #@! TO.P,U1,52*
X100904927Y-52757337D03*
G04 #@! TO.P,U1,51*
G04 #@! TO.N,GND*
X103444927Y-52757337D03*
G04 #@! TO.P,U1,50*
G04 #@! TO.N,Net-(J4-Pad1)*
X100904927Y-55297337D03*
G04 #@! TO.P,U1,49*
G04 #@! TO.N,Net-(R13-Pad1)*
X103444927Y-55297337D03*
G04 #@! TO.P,U1,48*
G04 #@! TO.N,KEY_COL_4*
X100904927Y-57837337D03*
G04 #@! TO.P,U1,47*
G04 #@! TO.N,KEY_COL_3*
X103444927Y-57837337D03*
G04 #@! TO.P,U1,46*
G04 #@! TO.N,KEY_COL_2*
X100904927Y-60377337D03*
G04 #@! TO.P,U1,45*
G04 #@! TO.N,Net-(R6-Pad1)*
X103444927Y-60377337D03*
G04 #@! TO.P,U1,44*
G04 #@! TO.N,DISP_D7*
X100904927Y-62917337D03*
G04 #@! TO.P,U1,43*
G04 #@! TO.N,DISP_D5*
X103444927Y-62917337D03*
G04 #@! TO.P,U1,42*
G04 #@! TO.N,DISP_D6*
X100904927Y-65457337D03*
G04 #@! TO.P,U1,41*
G04 #@! TO.N,DISP_D4*
X103444927Y-65457337D03*
G04 #@! TO.P,U1,40*
G04 #@! TO.N,DISP_D3*
X100904927Y-67997337D03*
G04 #@! TO.P,U1,39*
G04 #@! TO.N,KEY_COL_1*
X103444927Y-67997337D03*
G04 #@! TO.P,U1,38*
G04 #@! TO.N,N/C*
X100904927Y-70537337D03*
G04 #@! TO.P,U1,37*
G04 #@! TO.N,DISP_V0*
X103444927Y-70537337D03*
G04 #@! TO.P,U1,36*
G04 #@! TO.N,ADC_BATT*
X100904927Y-73077337D03*
G04 #@! TO.P,U1,35*
G04 #@! TO.N,KEY_ROW_4*
X103444927Y-73077337D03*
G04 #@! TO.P,U1,34*
G04 #@! TO.N,Net-(SW1-Pad2)*
X100904927Y-75617337D03*
G04 #@! TO.P,U1,33*
G04 #@! TO.N,LCMD*
X103444927Y-75617337D03*
G04 #@! TO.P,U1,32*
G04 #@! TO.N,GND*
X100904927Y-78157337D03*
G04 #@! TO.P,U1,31*
G04 #@! TO.N,N/C*
X103444927Y-78157337D03*
G04 #@! TO.P,U1,30*
X100904927Y-80697337D03*
G04 #@! TO.P,U1,29*
G04 #@! TO.N,GND*
X103444927Y-80697337D03*
G04 #@! TO.P,U1,28*
G04 #@! TO.N,KEY_ROW_3*
X100904927Y-83237337D03*
D14*
G04 #@! TO.P,U1,27*
G04 #@! TO.N,N/C*
X103444927Y-83237337D03*
G04 #@! TD*
D18*
G04 #@! TO.P,U5,*
G04 #@! TO.N,*
X150397000Y-92075000D03*
X150396480Y-147075700D03*
X57397900Y-147075700D03*
X57397900Y-92075000D03*
D19*
G04 #@! TO.P,U5,16*
G04 #@! TO.N,Net-(Q1-Pad3)*
X102997000Y-92075000D03*
G04 #@! TO.P,U5,15*
G04 #@! TO.N,Net-(R8-Pad1)*
X100457000Y-92075000D03*
G04 #@! TO.P,U5,14*
G04 #@! TO.N,DISP_D7*
X97917000Y-92075000D03*
G04 #@! TO.P,U5,13*
G04 #@! TO.N,DISP_D6*
X95377000Y-92075000D03*
G04 #@! TO.P,U5,12*
G04 #@! TO.N,DISP_D5*
X92837000Y-92075000D03*
G04 #@! TO.P,U5,11*
G04 #@! TO.N,DISP_D4*
X90297000Y-92075000D03*
G04 #@! TO.P,U5,10*
G04 #@! TO.N,DISP_D3*
X87757000Y-92075000D03*
G04 #@! TO.P,U5,9*
G04 #@! TO.N,DISP_D2*
X85217000Y-92075000D03*
G04 #@! TO.P,U5,8*
G04 #@! TO.N,DISP_D1*
X82677000Y-92075000D03*
G04 #@! TO.P,U5,7*
G04 #@! TO.N,DISP_D0*
X80137000Y-92075000D03*
G04 #@! TO.P,U5,6*
G04 #@! TO.N,Net-(R7-Pad1)*
X77597000Y-92075000D03*
G04 #@! TO.P,U5,5*
G04 #@! TO.N,GND*
X75057000Y-92075000D03*
G04 #@! TO.P,U5,4*
G04 #@! TO.N,DISP_RS*
X72517000Y-92075000D03*
G04 #@! TO.P,U5,3*
G04 #@! TO.N,DISP_V0*
X69977000Y-92075000D03*
G04 #@! TO.P,U5,2*
G04 #@! TO.N,+5V*
X67437000Y-92075000D03*
D20*
G04 #@! TO.P,U5,1*
G04 #@! TO.N,GND*
X64897000Y-92075000D03*
G04 #@! TD*
D14*
G04 #@! TO.P,J15,1*
G04 #@! TO.N,Net-(J15-Pad1)*
X142367000Y-65659000D03*
G04 #@! TD*
G04 #@! TO.P,J14,1*
G04 #@! TO.N,Net-(J14-Pad1)*
X142367000Y-70612000D03*
G04 #@! TD*
G04 #@! TO.P,J13,1*
G04 #@! TO.N,Net-(J13-Pad1)*
X144526000Y-54610000D03*
G04 #@! TD*
G04 #@! TO.P,J12,1*
G04 #@! TO.N,Net-(J12-Pad1)*
X148336000Y-54610000D03*
G04 #@! TD*
D21*
G04 #@! TO.P,U6,16*
G04 #@! TO.N,+3V3*
X163703000Y-57912000D03*
G04 #@! TO.P,U6,8*
G04 #@! TO.N,Net-(J15-Pad1)*
X145923000Y-65532000D03*
G04 #@! TO.P,U6,15*
G04 #@! TO.N,GND*
X161163000Y-57912000D03*
G04 #@! TO.P,U6,7*
G04 #@! TO.N,Net-(J14-Pad1)*
X148463000Y-65532000D03*
G04 #@! TO.P,U6,14*
G04 #@! TO.N,Net-(J17-Pad3)*
X158623000Y-57912000D03*
G04 #@! TO.P,U6,6*
G04 #@! TO.N,Net-(C14-Pad2)*
X151003000Y-65532000D03*
G04 #@! TO.P,U6,13*
G04 #@! TO.N,Net-(J17-Pad2)*
X156083000Y-57912000D03*
G04 #@! TO.P,U6,5*
G04 #@! TO.N,Net-(C12-Pad2)*
X153543000Y-65532000D03*
G04 #@! TO.P,U6,12*
G04 #@! TO.N,UART1_RX*
X153543000Y-57912000D03*
G04 #@! TO.P,U6,4*
G04 #@! TO.N,Net-(C12-Pad1)*
X156083000Y-65532000D03*
G04 #@! TO.P,U6,11*
G04 #@! TO.N,UART1_TX*
X151003000Y-57912000D03*
G04 #@! TO.P,U6,3*
G04 #@! TO.N,Net-(C10-Pad2)*
X158623000Y-65532000D03*
G04 #@! TO.P,U6,10*
G04 #@! TO.N,Net-(J12-Pad1)*
X148463000Y-57912000D03*
G04 #@! TO.P,U6,2*
G04 #@! TO.N,Net-(C13-Pad1)*
X161163000Y-65532000D03*
G04 #@! TO.P,U6,9*
G04 #@! TO.N,Net-(J13-Pad1)*
X145923000Y-57912000D03*
D22*
G04 #@! TO.P,U6,1*
G04 #@! TO.N,Net-(C10-Pad1)*
X163703000Y-65532000D03*
G04 #@! TD*
D23*
G04 #@! TO.P,U3,3*
G04 #@! TO.N,+5V*
X199159733Y-42584068D03*
G04 #@! TO.P,U3,2*
G04 #@! TO.N,+3V3*
X199159733Y-45124068D03*
D24*
G04 #@! TO.P,U3,1*
G04 #@! TO.N,GND*
X199159733Y-47664068D03*
G04 #@! TD*
D23*
G04 #@! TO.P,U2,3*
G04 #@! TO.N,+5V*
X214639720Y-65024000D03*
G04 #@! TO.P,U2,2*
G04 #@! TO.N,GND*
X214639720Y-62484000D03*
D24*
G04 #@! TO.P,U2,1*
G04 #@! TO.N,Net-(C2-Pad1)*
X214639720Y-59944000D03*
G04 #@! TD*
D16*
G04 #@! TO.P,R12,2*
G04 #@! TO.N,+3V3*
X122936000Y-52324000D03*
D10*
G04 #@! TO.P,R12,1*
G04 #@! TO.N,Net-(D6-Pad2)*
X122936000Y-42164000D03*
G04 #@! TD*
D16*
G04 #@! TO.P,R11,2*
G04 #@! TO.N,Net-(Q1-Pad1)*
X110998000Y-87122000D03*
D10*
G04 #@! TO.P,R11,1*
G04 #@! TO.N,LCMD*
X110998000Y-76962000D03*
G04 #@! TD*
D16*
G04 #@! TO.P,R10,2*
G04 #@! TO.N,GND*
X165100000Y-89916000D03*
D10*
G04 #@! TO.P,R10,1*
G04 #@! TO.N,Net-(Q1-Pad1)*
X154940000Y-89916000D03*
G04 #@! TD*
D16*
G04 #@! TO.P,R9,2*
G04 #@! TO.N,+5V*
X59944000Y-84328000D03*
D10*
G04 #@! TO.P,R9,1*
G04 #@! TO.N,Net-(R8-Pad2)*
X70104000Y-84328000D03*
G04 #@! TD*
D16*
G04 #@! TO.P,R8,2*
G04 #@! TO.N,Net-(R8-Pad2)*
X70104000Y-87376000D03*
D10*
G04 #@! TO.P,R8,1*
G04 #@! TO.N,Net-(R8-Pad1)*
X59944000Y-87376000D03*
G04 #@! TD*
D16*
G04 #@! TO.P,R7,2*
G04 #@! TO.N,DISP_EN*
X118872000Y-66040000D03*
D10*
G04 #@! TO.P,R7,1*
G04 #@! TO.N,Net-(R7-Pad1)*
X118872000Y-55880000D03*
G04 #@! TD*
D16*
G04 #@! TO.P,R5,2*
G04 #@! TO.N,Net-(C3-Pad1)*
X173736000Y-53848000D03*
D10*
G04 #@! TO.P,R5,1*
G04 #@! TO.N,VBAT*
X173736000Y-43688000D03*
G04 #@! TD*
D16*
G04 #@! TO.P,R4,2*
G04 #@! TO.N,LED_ERR*
X138176000Y-81280000D03*
D10*
G04 #@! TO.P,R4,1*
G04 #@! TO.N,Net-(D2-Pad2)*
X138176000Y-71120000D03*
G04 #@! TD*
D16*
G04 #@! TO.P,R3,2*
G04 #@! TO.N,GND*
X193040000Y-71120000D03*
D10*
G04 #@! TO.P,R3,1*
G04 #@! TO.N,ADC_BATT*
X203200000Y-71120000D03*
G04 #@! TD*
D16*
G04 #@! TO.P,R2,2*
G04 #@! TO.N,ADC_BATT*
X210820000Y-71120000D03*
D10*
G04 #@! TO.P,R2,1*
G04 #@! TO.N,+BATT*
X220980000Y-71120000D03*
G04 #@! TD*
G04 #@! TO.P,R1,2*
G04 #@! TO.N,LED_OK*
X122492087Y-77953802D03*
D11*
G04 #@! TD*
G04 #@! TO.N,LED_OK*
G04 #@! TO.C,R1*
X122492087Y-77953802D02*
X122492087Y-77953802D01*
D10*
G04 #@! TO.P,R1,1*
G04 #@! TO.N,Net-(D1-Pad2)*
X113284000Y-73660000D03*
G04 #@! TD*
D17*
G04 #@! TO.P,JP5,3*
G04 #@! TO.N,+5V*
X238252000Y-65024000D03*
G04 #@! TO.P,JP5,2*
X238252000Y-67564000D03*
D14*
G04 #@! TO.P,JP5,1*
G04 #@! TO.N,+BATT*
X238252000Y-70104000D03*
G04 #@! TD*
G04 #@! TO.P,J10,1*
G04 #@! TO.N,GND*
X131572000Y-47244000D03*
G04 #@! TD*
D25*
G04 #@! TO.P,J17,0*
G04 #@! TO.N,N/C*
X166630000Y-46840000D03*
X141630000Y-46840000D03*
D10*
G04 #@! TO.P,J17,9*
X158285000Y-45420000D03*
G04 #@! TO.P,J17,8*
X155515000Y-45420000D03*
G04 #@! TO.P,J17,7*
X152745000Y-45420000D03*
G04 #@! TO.P,J17,6*
X149975000Y-45420000D03*
G04 #@! TO.P,J17,5*
G04 #@! TO.N,GND*
X159670000Y-48260000D03*
G04 #@! TO.P,J17,4*
G04 #@! TO.N,N/C*
X156900000Y-48260000D03*
G04 #@! TO.P,J17,3*
G04 #@! TO.N,Net-(J17-Pad3)*
X154130000Y-48260000D03*
G04 #@! TO.P,J17,2*
G04 #@! TO.N,Net-(J17-Pad2)*
X151360000Y-48260000D03*
D26*
G04 #@! TO.P,J17,1*
G04 #@! TO.N,N/C*
X148590000Y-48260000D03*
G04 #@! TD*
D14*
G04 #@! TO.P,J11,1*
G04 #@! TO.N,GND*
X184404000Y-48768000D03*
G04 #@! TD*
G04 #@! TO.P,J9,1*
G04 #@! TO.N,+3V3*
X136144000Y-47244000D03*
G04 #@! TD*
G04 #@! TO.P,J8,1*
G04 #@! TO.N,+3V3*
X184404000Y-54864000D03*
G04 #@! TD*
G04 #@! TO.P,J7,1*
G04 #@! TO.N,+5V*
X72644000Y-80264000D03*
G04 #@! TD*
G04 #@! TO.P,J6,1*
G04 #@! TO.N,+5V*
X173990000Y-38608000D03*
G04 #@! TD*
D27*
G04 #@! TO.N,GND*
G04 #@! TO.C,J1*
G36*
X233752765Y-39704213D02*
X233837704Y-39716813D01*
X233920999Y-39737677D01*
X234001848Y-39766605D01*
X234079472Y-39803319D01*
X234153124Y-39847464D01*
X234222094Y-39898616D01*
X234285718Y-39956282D01*
X234343384Y-40019906D01*
X234394536Y-40088876D01*
X234438681Y-40162528D01*
X234475395Y-40240152D01*
X234504323Y-40321001D01*
X234525187Y-40404296D01*
X234537787Y-40489235D01*
X234542000Y-40575000D01*
X234542000Y-42325000D01*
X234537787Y-42410765D01*
X234525187Y-42495704D01*
X234504323Y-42578999D01*
X234475395Y-42659848D01*
X234438681Y-42737472D01*
X234394536Y-42811124D01*
X234343384Y-42880094D01*
X234285718Y-42943718D01*
X234222094Y-43001384D01*
X234153124Y-43052536D01*
X234079472Y-43096681D01*
X234001848Y-43133395D01*
X233920999Y-43162323D01*
X233837704Y-43183187D01*
X233752765Y-43195787D01*
X233667000Y-43200000D01*
X231917000Y-43200000D01*
X231831235Y-43195787D01*
X231746296Y-43183187D01*
X231663001Y-43162323D01*
X231582152Y-43133395D01*
X231504528Y-43096681D01*
X231430876Y-43052536D01*
X231361906Y-43001384D01*
X231298282Y-42943718D01*
X231240616Y-42880094D01*
X231189464Y-42811124D01*
X231145319Y-42737472D01*
X231108605Y-42659848D01*
X231079677Y-42578999D01*
X231058813Y-42495704D01*
X231046213Y-42410765D01*
X231042000Y-42325000D01*
X231042000Y-40575000D01*
X231046213Y-40489235D01*
X231058813Y-40404296D01*
X231079677Y-40321001D01*
X231108605Y-40240152D01*
X231145319Y-40162528D01*
X231189464Y-40088876D01*
X231240616Y-40019906D01*
X231298282Y-39956282D01*
X231361906Y-39898616D01*
X231430876Y-39847464D01*
X231504528Y-39803319D01*
X231582152Y-39766605D01*
X231663001Y-39737677D01*
X231746296Y-39716813D01*
X231831235Y-39704213D01*
X231917000Y-39700000D01*
X233667000Y-39700000D01*
X233752765Y-39704213D01*
X233752765Y-39704213D01*
G37*
D28*
G04 #@! TD*
G04 #@! TO.P,J1,3*
G04 #@! TO.N,GND*
X232792000Y-41450000D03*
D27*
G04 #@! TO.N,GND*
G04 #@! TO.C,J1*
G36*
X229165513Y-36953611D02*
X229238318Y-36964411D01*
X229309714Y-36982295D01*
X229379013Y-37007090D01*
X229445548Y-37038559D01*
X229508678Y-37076398D01*
X229567795Y-37120242D01*
X229622330Y-37169670D01*
X229671758Y-37224205D01*
X229715602Y-37283322D01*
X229753441Y-37346452D01*
X229784910Y-37412987D01*
X229809705Y-37482286D01*
X229827589Y-37553682D01*
X229838389Y-37626487D01*
X229842000Y-37700000D01*
X229842000Y-39200000D01*
X229838389Y-39273513D01*
X229827589Y-39346318D01*
X229809705Y-39417714D01*
X229784910Y-39487013D01*
X229753441Y-39553548D01*
X229715602Y-39616678D01*
X229671758Y-39675795D01*
X229622330Y-39730330D01*
X229567795Y-39779758D01*
X229508678Y-39823602D01*
X229445548Y-39861441D01*
X229379013Y-39892910D01*
X229309714Y-39917705D01*
X229238318Y-39935589D01*
X229165513Y-39946389D01*
X229092000Y-39950000D01*
X227092000Y-39950000D01*
X227018487Y-39946389D01*
X226945682Y-39935589D01*
X226874286Y-39917705D01*
X226804987Y-39892910D01*
X226738452Y-39861441D01*
X226675322Y-39823602D01*
X226616205Y-39779758D01*
X226561670Y-39730330D01*
X226512242Y-39675795D01*
X226468398Y-39616678D01*
X226430559Y-39553548D01*
X226399090Y-39487013D01*
X226374295Y-39417714D01*
X226356411Y-39346318D01*
X226345611Y-39273513D01*
X226342000Y-39200000D01*
X226342000Y-37700000D01*
X226345611Y-37626487D01*
X226356411Y-37553682D01*
X226374295Y-37482286D01*
X226399090Y-37412987D01*
X226430559Y-37346452D01*
X226468398Y-37283322D01*
X226512242Y-37224205D01*
X226561670Y-37169670D01*
X226616205Y-37120242D01*
X226675322Y-37076398D01*
X226738452Y-37038559D01*
X226804987Y-37007090D01*
X226874286Y-36982295D01*
X226945682Y-36964411D01*
X227018487Y-36953611D01*
X227092000Y-36950000D01*
X229092000Y-36950000D01*
X229165513Y-36953611D01*
X229165513Y-36953611D01*
G37*
D15*
G04 #@! TD*
G04 #@! TO.P,J1,2*
G04 #@! TO.N,GND*
X228092000Y-38450000D03*
D29*
G04 #@! TO.P,J1,1*
G04 #@! TO.N,Net-(F1-Pad2)*
X228092000Y-44450000D03*
G04 #@! TD*
D15*
G04 #@! TO.P,F2,2*
G04 #@! TO.N,GND*
X48768000Y-115068000D03*
G04 #@! TO.P,F2,1*
X48768000Y-137668000D03*
G04 #@! TD*
G04 #@! TO.P,F1,2*
G04 #@! TO.N,Net-(F1-Pad2)*
X238252000Y-137916000D03*
G04 #@! TO.P,F1,1*
G04 #@! TO.N,+BATT*
X238252000Y-115316000D03*
G04 #@! TD*
D30*
G04 #@! TO.P,D6,2*
G04 #@! TO.N,Net-(D6-Pad2)*
X132080000Y-42164000D03*
D31*
G04 #@! TO.P,D6,1*
G04 #@! TO.N,GND*
X134620000Y-42164000D03*
G04 #@! TD*
D32*
G04 #@! TO.P,D5,2*
G04 #@! TO.N,+3V3*
X179070000Y-53594000D03*
D31*
G04 #@! TO.P,D5,1*
G04 #@! TO.N,VBAT*
X179070000Y-45974000D03*
G04 #@! TD*
D33*
G04 #@! TO.P,D4,2*
G04 #@! TO.N,GND*
X226314000Y-49403000D03*
D34*
G04 #@! TO.P,D4,1*
G04 #@! TO.N,Net-(C2-Pad1)*
X226314000Y-62103000D03*
G04 #@! TD*
D35*
G04 #@! TO.P,D3,2*
G04 #@! TO.N,+BATT*
X231648000Y-72136000D03*
D36*
G04 #@! TO.P,D3,1*
G04 #@! TO.N,Net-(C2-Pad1)*
X231648000Y-61976000D03*
G04 #@! TD*
D30*
G04 #@! TO.P,D2,2*
G04 #@! TO.N,Net-(D2-Pad2)*
X136652000Y-63500000D03*
D31*
G04 #@! TO.P,D2,1*
G04 #@! TO.N,GND*
X139192000Y-63500000D03*
G04 #@! TD*
D30*
G04 #@! TO.P,D1,2*
G04 #@! TO.N,Net-(D1-Pad2)*
X109220000Y-67310000D03*
D31*
G04 #@! TO.P,D1,1*
G04 #@! TO.N,GND*
X111760000Y-67310000D03*
G04 #@! TD*
D10*
G04 #@! TO.P,C14,2*
G04 #@! TO.N,Net-(C14-Pad2)*
X149439000Y-70612000D03*
D26*
G04 #@! TO.P,C14,1*
G04 #@! TO.N,GND*
X146939000Y-70612000D03*
G04 #@! TD*
D10*
G04 #@! TO.P,C13,2*
G04 #@! TO.N,GND*
X169037000Y-66000000D03*
D26*
G04 #@! TO.P,C13,1*
G04 #@! TO.N,Net-(C13-Pad1)*
X169037000Y-63500000D03*
G04 #@! TD*
D10*
G04 #@! TO.P,C12,2*
G04 #@! TO.N,Net-(C12-Pad2)*
X153583000Y-70612000D03*
D26*
G04 #@! TO.P,C12,1*
G04 #@! TO.N,Net-(C12-Pad1)*
X156083000Y-70612000D03*
G04 #@! TD*
D37*
G04 #@! TO.P,C11,2*
G04 #@! TO.N,GND*
X169037000Y-59904000D03*
G04 #@! TO.P,C11,1*
G04 #@! TO.N,+3V3*
X169037000Y-57404000D03*
G04 #@! TD*
D10*
G04 #@! TO.P,C10,2*
G04 #@! TO.N,Net-(C10-Pad2)*
X160441000Y-70612000D03*
D26*
G04 #@! TO.P,C10,1*
G04 #@! TO.N,Net-(C10-Pad1)*
X162941000Y-70612000D03*
G04 #@! TD*
D10*
G04 #@! TO.P,C9,2*
G04 #@! TO.N,GND*
X65492000Y-62484000D03*
D26*
G04 #@! TO.P,C9,1*
G04 #@! TO.N,+3V3*
X62992000Y-62484000D03*
G04 #@! TD*
D37*
G04 #@! TO.P,C8,2*
G04 #@! TO.N,GND*
X191793733Y-53974068D03*
G04 #@! TO.P,C8,1*
G04 #@! TO.N,+3V3*
X191793733Y-51474068D03*
G04 #@! TD*
G04 #@! TO.P,C7,2*
G04 #@! TO.N,GND*
X191793733Y-48220000D03*
G04 #@! TO.P,C7,1*
G04 #@! TO.N,+5V*
X191793733Y-45720000D03*
G04 #@! TD*
G04 #@! TO.P,C5,2*
G04 #@! TO.N,GND*
X219710000Y-63540000D03*
G04 #@! TO.P,C5,1*
G04 #@! TO.N,+5V*
X219710000Y-66040000D03*
G04 #@! TD*
G04 #@! TO.P,C4,2*
G04 #@! TO.N,GND*
X219710000Y-60015728D03*
G04 #@! TO.P,C4,1*
G04 #@! TO.N,Net-(C2-Pad1)*
X219710000Y-57515728D03*
G04 #@! TD*
D38*
G04 #@! TO.P,C3,2*
G04 #@! TO.N,GND*
X182245000Y-67484000D03*
D39*
G04 #@! TO.P,C3,1*
G04 #@! TO.N,Net-(C3-Pad1)*
X182245000Y-62484000D03*
G04 #@! TD*
D10*
G04 #@! TO.P,C2,2*
G04 #@! TO.N,GND*
X224576000Y-69850000D03*
D26*
G04 #@! TO.P,C2,1*
G04 #@! TO.N,Net-(C2-Pad1)*
X227076000Y-69850000D03*
G04 #@! TD*
D37*
G04 #@! TO.P,C1,2*
G04 #@! TO.N,GND*
X208240000Y-71120000D03*
G04 #@! TO.P,C1,1*
G04 #@! TO.N,ADC_BATT*
X205740000Y-71120000D03*
G04 #@! TD*
D40*
G04 #@! TO.P,BZ1,2*
G04 #@! TO.N,GND*
X80772000Y-68560000D03*
D41*
G04 #@! TO.P,BZ1,1*
G04 #@! TO.N,Net-(BZ1-Pad1)*
X80772000Y-60960000D03*
G04 #@! TD*
D10*
G04 #@! TO.P,C6,2*
G04 #@! TO.N,GND*
X232704000Y-57150000D03*
D26*
G04 #@! TO.P,C6,1*
G04 #@! TO.N,+5V*
X235204000Y-57150000D03*
G04 #@! TD*
D40*
G04 #@! TO.P,SW17,1*
G04 #@! TO.N,KEY_ROW_4*
X222123000Y-143891000D03*
G04 #@! TO.P,SW17,2*
G04 #@! TO.N,KEY_COL_4*
X229743000Y-143891000D03*
X229743000Y-133731000D03*
G04 #@! TO.P,SW17,1*
G04 #@! TO.N,KEY_ROW_4*
X222123000Y-133731000D03*
X223393000Y-141271000D03*
G04 #@! TO.P,SW17,2*
G04 #@! TO.N,KEY_COL_4*
X228393000Y-141271000D03*
X228393000Y-136271000D03*
G04 #@! TO.P,SW17,1*
G04 #@! TO.N,KEY_ROW_4*
X223393000Y-136271000D03*
G04 #@! TD*
G04 #@! TO.P,SW13,1*
G04 #@! TO.N,KEY_ROW_4*
X206883000Y-143891000D03*
G04 #@! TO.P,SW13,2*
G04 #@! TO.N,KEY_COL_3*
X214503000Y-143891000D03*
X214503000Y-133731000D03*
G04 #@! TO.P,SW13,1*
G04 #@! TO.N,KEY_ROW_4*
X206883000Y-133731000D03*
X208153000Y-141271000D03*
G04 #@! TO.P,SW13,2*
G04 #@! TO.N,KEY_COL_3*
X213153000Y-141271000D03*
X213153000Y-136271000D03*
G04 #@! TO.P,SW13,1*
G04 #@! TO.N,KEY_ROW_4*
X208153000Y-136271000D03*
G04 #@! TD*
G04 #@! TO.P,SW9,1*
G04 #@! TO.N,KEY_ROW_4*
X191643000Y-143891000D03*
G04 #@! TO.P,SW9,2*
G04 #@! TO.N,KEY_COL_2*
X199263000Y-143891000D03*
X199263000Y-133731000D03*
G04 #@! TO.P,SW9,1*
G04 #@! TO.N,KEY_ROW_4*
X191643000Y-133731000D03*
X192913000Y-141271000D03*
G04 #@! TO.P,SW9,2*
G04 #@! TO.N,KEY_COL_2*
X197913000Y-141271000D03*
X197913000Y-136271000D03*
G04 #@! TO.P,SW9,1*
G04 #@! TO.N,KEY_ROW_4*
X192913000Y-136271000D03*
G04 #@! TD*
G04 #@! TO.P,SW5,1*
G04 #@! TO.N,KEY_ROW_4*
X176403000Y-143891000D03*
G04 #@! TO.P,SW5,2*
G04 #@! TO.N,KEY_COL_1*
X184023000Y-143891000D03*
X184023000Y-133731000D03*
G04 #@! TO.P,SW5,1*
G04 #@! TO.N,KEY_ROW_4*
X176403000Y-133731000D03*
X177673000Y-141271000D03*
G04 #@! TO.P,SW5,2*
G04 #@! TO.N,KEY_COL_1*
X182673000Y-141271000D03*
X182673000Y-136271000D03*
G04 #@! TO.P,SW5,1*
G04 #@! TO.N,KEY_ROW_4*
X177673000Y-136271000D03*
G04 #@! TD*
G04 #@! TO.P,SW1,1*
G04 #@! TO.N,GND*
X161036000Y-143891000D03*
G04 #@! TO.P,SW1,2*
G04 #@! TO.N,Net-(SW1-Pad2)*
X168656000Y-143891000D03*
X168656000Y-133731000D03*
G04 #@! TO.P,SW1,1*
G04 #@! TO.N,GND*
X161036000Y-133731000D03*
X162306000Y-141271000D03*
G04 #@! TO.P,SW1,2*
G04 #@! TO.N,Net-(SW1-Pad2)*
X167306000Y-141271000D03*
X167306000Y-136271000D03*
G04 #@! TO.P,SW1,1*
G04 #@! TO.N,GND*
X162306000Y-136271000D03*
G04 #@! TD*
G04 #@! TO.P,SW16,1*
G04 #@! TO.N,KEY_ROW_3*
X222123000Y-124841000D03*
G04 #@! TO.P,SW16,2*
G04 #@! TO.N,KEY_COL_4*
X229743000Y-124841000D03*
X229743000Y-114681000D03*
G04 #@! TO.P,SW16,1*
G04 #@! TO.N,KEY_ROW_3*
X222123000Y-114681000D03*
X223393000Y-122221000D03*
G04 #@! TO.P,SW16,2*
G04 #@! TO.N,KEY_COL_4*
X228393000Y-122221000D03*
X228393000Y-117221000D03*
G04 #@! TO.P,SW16,1*
G04 #@! TO.N,KEY_ROW_3*
X223393000Y-117221000D03*
G04 #@! TD*
G04 #@! TO.P,SW12,1*
G04 #@! TO.N,KEY_ROW_3*
X206883000Y-124841000D03*
G04 #@! TO.P,SW12,2*
G04 #@! TO.N,KEY_COL_3*
X214503000Y-124841000D03*
X214503000Y-114681000D03*
G04 #@! TO.P,SW12,1*
G04 #@! TO.N,KEY_ROW_3*
X206883000Y-114681000D03*
X208153000Y-122221000D03*
G04 #@! TO.P,SW12,2*
G04 #@! TO.N,KEY_COL_3*
X213153000Y-122221000D03*
X213153000Y-117221000D03*
G04 #@! TO.P,SW12,1*
G04 #@! TO.N,KEY_ROW_3*
X208153000Y-117221000D03*
G04 #@! TD*
G04 #@! TO.P,SW8,1*
G04 #@! TO.N,KEY_ROW_3*
X192913000Y-117221000D03*
G04 #@! TO.P,SW8,2*
G04 #@! TO.N,KEY_COL_2*
X197913000Y-117221000D03*
X197913000Y-122221000D03*
G04 #@! TO.P,SW8,1*
G04 #@! TO.N,KEY_ROW_3*
X192913000Y-122221000D03*
X191643000Y-114681000D03*
G04 #@! TO.P,SW8,2*
G04 #@! TO.N,KEY_COL_2*
X199263000Y-114681000D03*
X199263000Y-124841000D03*
G04 #@! TO.P,SW8,1*
G04 #@! TO.N,KEY_ROW_3*
X191643000Y-124841000D03*
G04 #@! TD*
G04 #@! TO.P,SW4,1*
G04 #@! TO.N,KEY_ROW_3*
X176403000Y-124841000D03*
G04 #@! TO.P,SW4,2*
G04 #@! TO.N,KEY_COL_1*
X184023000Y-124841000D03*
X184023000Y-114681000D03*
G04 #@! TO.P,SW4,1*
G04 #@! TO.N,KEY_ROW_3*
X176403000Y-114681000D03*
X177673000Y-122221000D03*
G04 #@! TO.P,SW4,2*
G04 #@! TO.N,KEY_COL_1*
X182673000Y-122221000D03*
X182673000Y-117221000D03*
G04 #@! TO.P,SW4,1*
G04 #@! TO.N,KEY_ROW_3*
X177673000Y-117221000D03*
G04 #@! TD*
G04 #@! TO.P,SW15,1*
G04 #@! TO.N,KEY_ROW_2*
X222123000Y-105791000D03*
G04 #@! TO.P,SW15,2*
G04 #@! TO.N,KEY_COL_4*
X229743000Y-105791000D03*
X229743000Y-95631000D03*
G04 #@! TO.P,SW15,1*
G04 #@! TO.N,KEY_ROW_2*
X222123000Y-95631000D03*
X223393000Y-103171000D03*
G04 #@! TO.P,SW15,2*
G04 #@! TO.N,KEY_COL_4*
X228393000Y-103171000D03*
X228393000Y-98171000D03*
G04 #@! TO.P,SW15,1*
G04 #@! TO.N,KEY_ROW_2*
X223393000Y-98171000D03*
G04 #@! TD*
G04 #@! TO.P,SW11,1*
G04 #@! TO.N,KEY_ROW_2*
X206883000Y-105791000D03*
G04 #@! TO.P,SW11,2*
G04 #@! TO.N,KEY_COL_3*
X214503000Y-105791000D03*
X214503000Y-95631000D03*
G04 #@! TO.P,SW11,1*
G04 #@! TO.N,KEY_ROW_2*
X206883000Y-95631000D03*
X208153000Y-103171000D03*
G04 #@! TO.P,SW11,2*
G04 #@! TO.N,KEY_COL_3*
X213153000Y-103171000D03*
X213153000Y-98171000D03*
G04 #@! TO.P,SW11,1*
G04 #@! TO.N,KEY_ROW_2*
X208153000Y-98171000D03*
G04 #@! TD*
G04 #@! TO.P,SW7,1*
G04 #@! TO.N,KEY_ROW_2*
X191643000Y-105791000D03*
G04 #@! TO.P,SW7,2*
G04 #@! TO.N,KEY_COL_2*
X199263000Y-105791000D03*
X199263000Y-95631000D03*
G04 #@! TO.P,SW7,1*
G04 #@! TO.N,KEY_ROW_2*
X191643000Y-95631000D03*
X192913000Y-103171000D03*
G04 #@! TO.P,SW7,2*
G04 #@! TO.N,KEY_COL_2*
X197913000Y-103171000D03*
X197913000Y-98171000D03*
G04 #@! TO.P,SW7,1*
G04 #@! TO.N,KEY_ROW_2*
X192913000Y-98171000D03*
G04 #@! TD*
G04 #@! TO.P,SW3,1*
G04 #@! TO.N,KEY_ROW_2*
X176403000Y-105791000D03*
G04 #@! TO.P,SW3,2*
G04 #@! TO.N,KEY_COL_1*
X184023000Y-105791000D03*
X184023000Y-95631000D03*
G04 #@! TO.P,SW3,1*
G04 #@! TO.N,KEY_ROW_2*
X176403000Y-95631000D03*
X177673000Y-103171000D03*
G04 #@! TO.P,SW3,2*
G04 #@! TO.N,KEY_COL_1*
X182673000Y-103171000D03*
X182673000Y-98171000D03*
G04 #@! TO.P,SW3,1*
G04 #@! TO.N,KEY_ROW_2*
X177673000Y-98171000D03*
G04 #@! TD*
G04 #@! TO.P,SW14,1*
G04 #@! TO.N,KEY_ROW_1*
X222123000Y-86741000D03*
G04 #@! TO.P,SW14,2*
G04 #@! TO.N,KEY_COL_4*
X229743000Y-86741000D03*
X229743000Y-76581000D03*
G04 #@! TO.P,SW14,1*
G04 #@! TO.N,KEY_ROW_1*
X222123000Y-76581000D03*
X223393000Y-84121000D03*
G04 #@! TO.P,SW14,2*
G04 #@! TO.N,KEY_COL_4*
X228393000Y-84121000D03*
X228393000Y-79121000D03*
G04 #@! TO.P,SW14,1*
G04 #@! TO.N,KEY_ROW_1*
X223393000Y-79121000D03*
G04 #@! TD*
G04 #@! TO.P,SW10,1*
G04 #@! TO.N,KEY_ROW_1*
X206883000Y-86741000D03*
G04 #@! TO.P,SW10,2*
G04 #@! TO.N,KEY_COL_3*
X214503000Y-86741000D03*
X214503000Y-76581000D03*
G04 #@! TO.P,SW10,1*
G04 #@! TO.N,KEY_ROW_1*
X206883000Y-76581000D03*
X208153000Y-84121000D03*
G04 #@! TO.P,SW10,2*
G04 #@! TO.N,KEY_COL_3*
X213153000Y-84121000D03*
X213153000Y-79121000D03*
G04 #@! TO.P,SW10,1*
G04 #@! TO.N,KEY_ROW_1*
X208153000Y-79121000D03*
G04 #@! TD*
G04 #@! TO.P,SW6,1*
G04 #@! TO.N,KEY_ROW_1*
X191643000Y-86741000D03*
G04 #@! TO.P,SW6,2*
G04 #@! TO.N,KEY_COL_2*
X199263000Y-86741000D03*
X199263000Y-76581000D03*
G04 #@! TO.P,SW6,1*
G04 #@! TO.N,KEY_ROW_1*
X191643000Y-76581000D03*
X192913000Y-84121000D03*
G04 #@! TO.P,SW6,2*
G04 #@! TO.N,KEY_COL_2*
X197913000Y-84121000D03*
X197913000Y-79121000D03*
G04 #@! TO.P,SW6,1*
G04 #@! TO.N,KEY_ROW_1*
X192913000Y-79121000D03*
G04 #@! TD*
G04 #@! TO.P,SW2,1*
G04 #@! TO.N,KEY_ROW_1*
X177673000Y-79121000D03*
G04 #@! TO.P,SW2,2*
G04 #@! TO.N,KEY_COL_1*
X182673000Y-79121000D03*
X182673000Y-84121000D03*
G04 #@! TO.P,SW2,1*
G04 #@! TO.N,KEY_ROW_1*
X177673000Y-84121000D03*
X176403000Y-76581000D03*
G04 #@! TO.P,SW2,2*
G04 #@! TO.N,KEY_COL_1*
X184023000Y-76581000D03*
X184023000Y-86741000D03*
G04 #@! TO.P,SW2,1*
G04 #@! TO.N,KEY_ROW_1*
X176403000Y-86741000D03*
G04 #@! TD*
D42*
G04 #@! TO.P,U4,8*
G04 #@! TO.N,+3V3*
X66040000Y-78740000D03*
G04 #@! TO.P,U4,7*
G04 #@! TO.N,ESP_RST*
X66040000Y-76200000D03*
G04 #@! TO.P,U4,6*
G04 #@! TO.N,ESP_EN*
X66040000Y-73660000D03*
G04 #@! TO.P,U4,5*
G04 #@! TO.N,UART3_RX*
X66040000Y-71120000D03*
G04 #@! TO.P,U4,4*
G04 #@! TO.N,UART3_TX*
X63500000Y-78740000D03*
G04 #@! TO.P,U4,3*
G04 #@! TO.N,N/C*
X63500000Y-76200000D03*
G04 #@! TO.P,U4,2*
X63500000Y-73660000D03*
G04 #@! TO.P,U4,1*
G04 #@! TO.N,GND*
X63500000Y-71120000D03*
G04 #@! TD*
D14*
G04 #@! TO.P,J2,1*
G04 #@! TO.N,Net-(F1-Pad2)*
X243586000Y-69596000D03*
D17*
G04 #@! TO.P,J2,2*
X243586000Y-67056000D03*
G04 #@! TD*
D15*
G04 #@! TO.P,J16,5*
G04 #@! TO.N,Net-(J16-Pad5)*
X179828000Y-40002000D03*
X193548000Y-40002000D03*
D43*
G04 #@! TO.P,J16,1*
G04 #@! TO.N,Net-(F3-Pad1)*
X183388000Y-42672000D03*
G04 #@! TO.P,J16,2*
G04 #@! TO.N,N/C*
X185928000Y-42672000D03*
G04 #@! TO.P,J16,3*
X187958000Y-42672000D03*
G04 #@! TO.P,J16,4*
G04 #@! TO.N,GND*
X190498000Y-42672000D03*
G04 #@! TD*
D44*
G04 #@! TO.N,GND*
X120904000Y-66040000D03*
X133096000Y-72644000D03*
X133096000Y-68072000D03*
X133096000Y-63500000D03*
D45*
G04 #@! TO.N,+3V3*
X203200000Y-38608000D03*
X205232000Y-38608000D03*
X207264000Y-38608000D03*
X209296000Y-38608000D03*
X211328000Y-38608000D03*
X220472000Y-43180000D03*
X220472000Y-45212000D03*
X203200000Y-51816000D03*
X205232000Y-51816000D03*
X211328000Y-51816000D03*
X220472000Y-49276000D03*
X209296000Y-51816000D03*
X207264000Y-51816000D03*
X215392000Y-38608000D03*
X213360000Y-38608000D03*
X213360000Y-51816000D03*
X215392000Y-51816000D03*
X220472000Y-47244000D03*
X220472000Y-41148000D03*
X126492000Y-50292000D03*
X133604000Y-50292000D03*
X217424000Y-51816000D03*
X219456000Y-51816000D03*
X219456000Y-38608000D03*
X217424000Y-38608000D03*
D44*
G04 #@! TO.N,KEY_COL_2*
X99060000Y-72136000D03*
G04 #@! TO.N,KEY_COL_3*
X107188000Y-61468000D03*
G04 #@! TO.N,KEY_COL_4*
X98044000Y-71120000D03*
G04 #@! TO.N,DISP_V0*
X84836000Y-51308000D03*
X90932000Y-51308000D03*
X105975754Y-69088000D03*
G04 #@! TO.N,DISP_D3*
X96012000Y-71374000D03*
X90932000Y-71374000D03*
G04 #@! TO.N,DISP_D7*
X94996000Y-64008000D03*
X94996000Y-66548000D03*
G04 #@! TO.N,VBAT*
X141056050Y-79415950D03*
X141056050Y-75859950D03*
G04 #@! TO.N,UART1_TX*
X133096000Y-55372000D03*
G04 #@! TO.N,UART1_RX*
X133396052Y-61675948D03*
G04 #@! TO.N,UART3_TX*
X68072000Y-80264000D03*
G04 #@! TO.N,UART3_RX*
X72136000Y-71120000D03*
G04 #@! TO.N,ESP_EN*
X70612000Y-73660000D03*
D45*
G04 #@! TO.N,Net-(Q1-Pad3)*
X157988000Y-96520000D03*
D44*
G04 #@! TO.N,ADC_BATT*
X165608000Y-84328000D03*
X165608000Y-76200000D03*
G04 #@! TO.N,Net-(JP4-Pad2)*
X133096000Y-76200000D03*
G04 #@! TD*
D46*
G04 #@! TO.N,GND*
X161036000Y-135001000D02*
X162306000Y-136271000D01*
X161036000Y-133731000D02*
X161036000Y-135001000D01*
X161036000Y-142541000D02*
X162306000Y-141271000D01*
X161036000Y-143891000D02*
X161036000Y-142541000D01*
X122286000Y-66040000D02*
X120904000Y-66040000D01*
X133096000Y-74026000D02*
X133096000Y-72644000D01*
X133096000Y-69454000D02*
X133096000Y-68072000D01*
X133096000Y-65024000D02*
X133096000Y-63500000D01*
D47*
G04 #@! TO.N,+5V*
X220980000Y-66040000D02*
X219710000Y-66040000D01*
X236728000Y-65024000D02*
X221996000Y-65024000D01*
X221996000Y-65024000D02*
X220980000Y-66040000D01*
D46*
X238252000Y-67564000D02*
X238252000Y-65024000D01*
D47*
X218440000Y-66040000D02*
X219710000Y-66040000D01*
X214639720Y-65024000D02*
X216408000Y-65024000D01*
X217424000Y-66040000D02*
X218440000Y-66040000D01*
X216408000Y-65024000D02*
X217424000Y-66040000D01*
X194841733Y-42672000D02*
X191793733Y-45720000D01*
X194929665Y-42584068D02*
X194841733Y-42672000D01*
X196596000Y-39116000D02*
X196596000Y-42584068D01*
X199159733Y-42584068D02*
X196596000Y-42584068D01*
X196596000Y-42584068D02*
X194929665Y-42584068D01*
X196596000Y-39116000D02*
X194564000Y-37084000D01*
X212979000Y-65024000D02*
X214639720Y-65024000D01*
X201295000Y-53340000D02*
X212979000Y-65024000D01*
X201295000Y-43688000D02*
X201295000Y-53340000D01*
X199159733Y-42584068D02*
X200191068Y-42584068D01*
X200191068Y-42584068D02*
X201295000Y-43688000D01*
X236728000Y-67564000D02*
X238252000Y-67564000D01*
X238252000Y-100832000D02*
X238252000Y-82804000D01*
X238252000Y-82804000D02*
X241300000Y-79756000D01*
X241300000Y-79756000D02*
X241300000Y-76708000D01*
X241300000Y-76708000D02*
X235896010Y-71304010D01*
X235896010Y-71304010D02*
X235896010Y-68395990D01*
X235896010Y-68395990D02*
X236728000Y-67564000D01*
X59944000Y-84328000D02*
X61849000Y-84328000D01*
X236728000Y-65024000D02*
X238252000Y-65024000D01*
G04 #@! TO.N,+3V3*
X163703000Y-57912000D02*
X166243000Y-57912000D01*
X166751000Y-57404000D02*
X169037000Y-57404000D01*
X166243000Y-57912000D02*
X166751000Y-57404000D01*
X126492000Y-50292000D02*
X126492000Y-50292000D01*
X124968000Y-50292000D02*
X126492000Y-50292000D01*
X123952000Y-51308000D02*
X124968000Y-50292000D01*
X124901949Y-57845949D02*
X123952000Y-56896000D01*
X126295754Y-57845949D02*
X124901949Y-57845949D01*
X176784000Y-51308000D02*
X179070000Y-53594000D01*
X160020000Y-43180000D02*
X162560000Y-45720000D01*
X165100000Y-51308000D02*
X167132000Y-51308000D01*
X165100000Y-51308000D02*
X162560000Y-48768000D01*
X162560000Y-45720000D02*
X162560000Y-48768000D01*
X169164000Y-51308000D02*
X169037000Y-51435000D01*
X169164000Y-51308000D02*
X176784000Y-51308000D01*
X167132000Y-51308000D02*
X169164000Y-51308000D01*
X145796000Y-48768000D02*
X145796000Y-43180000D01*
X144272000Y-50292000D02*
X145796000Y-48768000D01*
X145796000Y-43180000D02*
X160020000Y-43180000D01*
X137668000Y-50292000D02*
X144272000Y-50292000D01*
X136652000Y-50292000D02*
X137668000Y-50292000D01*
X169037000Y-51435000D02*
X169037000Y-57404000D01*
X122936000Y-52324000D02*
X123952000Y-52324000D01*
X123952000Y-56896000D02*
X123952000Y-52324000D01*
X123952000Y-52324000D02*
X123952000Y-51308000D01*
X133604000Y-50292000D02*
X136144000Y-50292000D01*
X136144000Y-50292000D02*
X136652000Y-50292000D01*
X136144000Y-47244000D02*
X136144000Y-50292000D01*
X197191932Y-45124068D02*
X199159733Y-45124068D01*
X195580000Y-46736000D02*
X197191932Y-45124068D01*
X195580000Y-49276000D02*
X195580000Y-46736000D01*
X191793733Y-51474068D02*
X193381932Y-51474068D01*
X193381932Y-51474068D02*
X195580000Y-49276000D01*
X62230000Y-80772000D02*
X61722000Y-80264000D01*
X66040000Y-79502000D02*
X66040000Y-78740000D01*
X66040000Y-80772000D02*
X66040000Y-79502000D01*
X65278000Y-81534000D02*
X66040000Y-80772000D01*
X62992000Y-81534000D02*
X65278000Y-81534000D01*
X61722000Y-80264000D02*
X62992000Y-81534000D01*
X142748000Y-40132000D02*
X145796000Y-43180000D01*
X61722000Y-80264000D02*
X60960000Y-79502000D01*
X60960000Y-60452000D02*
X82804000Y-38608000D01*
X82804000Y-38608000D02*
X114808000Y-38608000D01*
X114808000Y-38608000D02*
X116332000Y-40132000D01*
X116332000Y-40132000D02*
X142748000Y-40132000D01*
X62992000Y-62484000D02*
X60960000Y-62484000D01*
X60960000Y-79502000D02*
X60960000Y-62484000D01*
X60960000Y-62484000D02*
X60960000Y-60452000D01*
D46*
G04 #@! TO.N,Net-(D1-Pad2)*
X109220000Y-69596000D02*
X109220000Y-67310000D01*
X113284000Y-73660000D02*
X109220000Y-69596000D01*
G04 #@! TO.N,Net-(BZ1-Pad1)*
X81788000Y-55372000D02*
X82804000Y-54356000D01*
X80772000Y-56388000D02*
X81788000Y-55372000D01*
X80772000Y-60960000D02*
X80772000Y-56388000D01*
G04 #@! TO.N,KEY_ROW_1*
X176403000Y-77851000D02*
X177673000Y-79121000D01*
X176403000Y-76581000D02*
X176403000Y-77851000D01*
X176403000Y-85391000D02*
X177673000Y-84121000D01*
X176403000Y-86741000D02*
X176403000Y-85391000D01*
X191643000Y-85391000D02*
X192913000Y-84121000D01*
X191643000Y-86741000D02*
X191643000Y-85391000D01*
X191643000Y-77851000D02*
X192913000Y-79121000D01*
X191643000Y-76581000D02*
X191643000Y-77851000D01*
X206883000Y-85391000D02*
X208153000Y-84121000D01*
X206883000Y-86741000D02*
X206883000Y-85391000D01*
X206883000Y-77851000D02*
X208153000Y-79121000D01*
X206883000Y-76581000D02*
X206883000Y-77851000D01*
X222123000Y-85391000D02*
X223393000Y-84121000D01*
X222123000Y-86741000D02*
X222123000Y-85391000D01*
X222123000Y-77851000D02*
X223393000Y-79121000D01*
X222123000Y-76581000D02*
X222123000Y-77851000D01*
X177673000Y-80535213D02*
X178417787Y-81280000D01*
X177673000Y-79121000D02*
X177673000Y-80535213D01*
X192913000Y-79121000D02*
X192913000Y-81280000D01*
X178417787Y-81280000D02*
X192913000Y-81280000D01*
X208153000Y-80535213D02*
X208153000Y-81280000D01*
X208153000Y-79121000D02*
X208153000Y-80535213D01*
X192913000Y-81280000D02*
X208153000Y-81280000D01*
X208153000Y-81280000D02*
X223266000Y-81280000D01*
X223393000Y-81153000D02*
X223393000Y-79121000D01*
X223266000Y-81280000D02*
X223393000Y-81153000D01*
X223393000Y-84121000D02*
X223393000Y-81153000D01*
X126295754Y-75625949D02*
X126425949Y-75625949D01*
D48*
X127545755Y-76875950D02*
X126295754Y-75625949D01*
X130134050Y-76875950D02*
X127545755Y-76875950D01*
D46*
X131490100Y-78232000D02*
X130134050Y-76875950D01*
X171069000Y-78232000D02*
X131490100Y-78232000D01*
X176403000Y-76581000D02*
X172720000Y-76581000D01*
X172720000Y-76581000D02*
X171069000Y-78232000D01*
G04 #@! TO.N,KEY_COL_1*
X184023000Y-77771000D02*
X182673000Y-79121000D01*
X184023000Y-76581000D02*
X184023000Y-77771000D01*
X184023000Y-85471000D02*
X182673000Y-84121000D01*
X184023000Y-86741000D02*
X184023000Y-85471000D01*
X184023000Y-104521000D02*
X182673000Y-103171000D01*
X184023000Y-105791000D02*
X184023000Y-104521000D01*
X184023000Y-96821000D02*
X182673000Y-98171000D01*
X184023000Y-95631000D02*
X184023000Y-96821000D01*
X184023000Y-115871000D02*
X182673000Y-117221000D01*
X184023000Y-114681000D02*
X184023000Y-115871000D01*
X184023000Y-123571000D02*
X182673000Y-122221000D01*
X184023000Y-124841000D02*
X184023000Y-123571000D01*
X184023000Y-134921000D02*
X182673000Y-136271000D01*
X184023000Y-133731000D02*
X184023000Y-134921000D01*
X184023000Y-142621000D02*
X182673000Y-141271000D01*
X184023000Y-143891000D02*
X184023000Y-142621000D01*
X138684000Y-85852000D02*
X121412000Y-85852000D01*
X121412000Y-85852000D02*
X114808000Y-79248000D01*
X144272000Y-80264000D02*
X138684000Y-85852000D01*
X169164000Y-80264000D02*
X144272000Y-80264000D01*
X184023000Y-95631000D02*
X184023000Y-94216787D01*
X184023000Y-94216787D02*
X183151213Y-93345000D01*
X183151213Y-93345000D02*
X175260000Y-93345000D01*
X175260000Y-93345000D02*
X173355000Y-91440000D01*
X106172000Y-70724410D02*
X103444927Y-67997337D01*
X173355000Y-91440000D02*
X173355000Y-84455000D01*
X173355000Y-84455000D02*
X169164000Y-80264000D01*
X110236000Y-79248000D02*
X106172000Y-75184000D01*
X106172000Y-75184000D02*
X106172000Y-70724410D01*
X114808000Y-79248000D02*
X110236000Y-79248000D01*
G04 #@! TO.N,KEY_ROW_2*
X177673000Y-100711000D02*
X177673000Y-98171000D01*
X192913000Y-98171000D02*
X192913000Y-100711000D01*
X192913000Y-100711000D02*
X177673000Y-100711000D01*
X208153000Y-98171000D02*
X208153000Y-100711000D01*
X220853000Y-100711000D02*
X208153000Y-100711000D01*
X208153000Y-100711000D02*
X192913000Y-100711000D01*
X220933000Y-100711000D02*
X220853000Y-100711000D01*
X208153000Y-103171000D02*
X208153000Y-100711000D01*
X192913000Y-103171000D02*
X192913000Y-100711000D01*
X177673000Y-103171000D02*
X177673000Y-100711000D01*
X176403000Y-104441000D02*
X177673000Y-103171000D01*
X176403000Y-105791000D02*
X176403000Y-104441000D01*
X176403000Y-96901000D02*
X177673000Y-98171000D01*
X176403000Y-95631000D02*
X176403000Y-96901000D01*
X191643000Y-96901000D02*
X192913000Y-98171000D01*
X191643000Y-95631000D02*
X191643000Y-96901000D01*
X191643000Y-104441000D02*
X192913000Y-103171000D01*
X191643000Y-105791000D02*
X191643000Y-104441000D01*
X206883000Y-104441000D02*
X208153000Y-103171000D01*
X206883000Y-105791000D02*
X206883000Y-104441000D01*
X206883000Y-96901000D02*
X208153000Y-98171000D01*
X206883000Y-95631000D02*
X206883000Y-96901000D01*
X222123000Y-96901000D02*
X223393000Y-98171000D01*
X222123000Y-95631000D02*
X222123000Y-96901000D01*
X222123000Y-104441000D02*
X223393000Y-103171000D01*
X222123000Y-105791000D02*
X222123000Y-104441000D01*
X220853000Y-100711000D02*
X223393000Y-100711000D01*
X223393000Y-103171000D02*
X223393000Y-100711000D01*
X223393000Y-100711000D02*
X223393000Y-98171000D01*
X130048000Y-75625949D02*
X128835754Y-75625949D01*
X131909998Y-77216000D02*
X130319947Y-75625949D01*
X170307000Y-77216000D02*
X131909998Y-77216000D01*
X231775000Y-99060000D02*
X231775000Y-75565000D01*
X223393000Y-100711000D02*
X230124000Y-100711000D01*
X231775000Y-75565000D02*
X230505000Y-74295000D01*
X130319947Y-75625949D02*
X130048000Y-75625949D01*
X230505000Y-74295000D02*
X173228000Y-74295000D01*
X230124000Y-100711000D02*
X231775000Y-99060000D01*
X173228000Y-74295000D02*
X170307000Y-77216000D01*
G04 #@! TO.N,KEY_ROW_3*
X177673000Y-119761000D02*
X177673000Y-117221000D01*
X192913000Y-117221000D02*
X192913000Y-119761000D01*
X192913000Y-119761000D02*
X177673000Y-119761000D01*
X208153000Y-117221000D02*
X208153000Y-119761000D01*
X208153000Y-119761000D02*
X192913000Y-119761000D01*
X177673000Y-122221000D02*
X177673000Y-119761000D01*
X192913000Y-122221000D02*
X192913000Y-119761000D01*
X208153000Y-122221000D02*
X208153000Y-119761000D01*
X176403000Y-115951000D02*
X177673000Y-117221000D01*
X176403000Y-114681000D02*
X176403000Y-115951000D01*
X176403000Y-123491000D02*
X177673000Y-122221000D01*
X176403000Y-124841000D02*
X176403000Y-123491000D01*
X191643000Y-123491000D02*
X192913000Y-122221000D01*
X191643000Y-124841000D02*
X191643000Y-123491000D01*
X191643000Y-115951000D02*
X192913000Y-117221000D01*
X191643000Y-114681000D02*
X191643000Y-115951000D01*
X206883000Y-123491000D02*
X208153000Y-122221000D01*
X206883000Y-124841000D02*
X206883000Y-123491000D01*
X222123000Y-123491000D02*
X223393000Y-122221000D01*
X222123000Y-124841000D02*
X222123000Y-123491000D01*
X222123000Y-115951000D02*
X223393000Y-117221000D01*
X222123000Y-114681000D02*
X222123000Y-115951000D01*
X206883000Y-115951000D02*
X208153000Y-117221000D01*
X206883000Y-114681000D02*
X206883000Y-115951000D01*
X220933000Y-119761000D02*
X223393000Y-119761000D01*
X208153000Y-119761000D02*
X220933000Y-119761000D01*
X223393000Y-122221000D02*
X223393000Y-119761000D01*
X223393000Y-119761000D02*
X223393000Y-117221000D01*
X100904927Y-84648927D02*
X100904927Y-83237337D01*
X101092000Y-84836000D02*
X100904927Y-84648927D01*
X104648000Y-84836000D02*
X101092000Y-84836000D01*
X108204000Y-81280000D02*
X104648000Y-84836000D01*
X113792000Y-81280000D02*
X108204000Y-81280000D01*
X120396000Y-87884000D02*
X113792000Y-81280000D01*
X139700000Y-87884000D02*
X120396000Y-87884000D01*
X175006000Y-119761000D02*
X170815000Y-115570000D01*
X177673000Y-119761000D02*
X175006000Y-119761000D01*
X170815000Y-115570000D02*
X170815000Y-85725000D01*
X170815000Y-85725000D02*
X167386000Y-82296000D01*
X167386000Y-82296000D02*
X145288000Y-82296000D01*
X145288000Y-82296000D02*
X139700000Y-87884000D01*
G04 #@! TO.N,KEY_ROW_4*
X222123000Y-142541000D02*
X223393000Y-141271000D01*
X222123000Y-143891000D02*
X222123000Y-142541000D01*
X222123000Y-135001000D02*
X223393000Y-136271000D01*
X222123000Y-133731000D02*
X222123000Y-135001000D01*
X206883000Y-142541000D02*
X208153000Y-141271000D01*
X206883000Y-143891000D02*
X206883000Y-142541000D01*
X206883000Y-135001000D02*
X208153000Y-136271000D01*
X206883000Y-133731000D02*
X206883000Y-135001000D01*
X191643000Y-142541000D02*
X192913000Y-141271000D01*
X191643000Y-143891000D02*
X191643000Y-142541000D01*
X191643000Y-135001000D02*
X192913000Y-136271000D01*
X191643000Y-133731000D02*
X191643000Y-135001000D01*
X176403000Y-142541000D02*
X177673000Y-141271000D01*
X176403000Y-143891000D02*
X176403000Y-142541000D01*
X176403000Y-135001000D02*
X177673000Y-136271000D01*
X176403000Y-133731000D02*
X176403000Y-135001000D01*
X192913000Y-136271000D02*
X192913000Y-138176000D01*
X223393000Y-138049000D02*
X223393000Y-136271000D01*
X223520000Y-138176000D02*
X223393000Y-138049000D01*
X192913000Y-138049000D02*
X193040000Y-138176000D01*
X192913000Y-136271000D02*
X192913000Y-138049000D01*
X208153000Y-136271000D02*
X208153000Y-138176000D01*
X193040000Y-138176000D02*
X208153000Y-138176000D01*
X208153000Y-138176000D02*
X223520000Y-138176000D01*
X177673000Y-137160000D02*
X177673000Y-136271000D01*
X178689000Y-138176000D02*
X177673000Y-137160000D01*
X193040000Y-138176000D02*
X178689000Y-138176000D01*
X105156000Y-74788410D02*
X103444927Y-73077337D01*
X144780000Y-81280000D02*
X139192000Y-86868000D01*
X168275000Y-81280000D02*
X144780000Y-81280000D01*
X172085000Y-85090000D02*
X168275000Y-81280000D01*
X172085000Y-111125000D02*
X172085000Y-85090000D01*
X230124000Y-138176000D02*
X231775000Y-136525000D01*
X223520000Y-138176000D02*
X230124000Y-138176000D01*
X231775000Y-136525000D02*
X231775000Y-113665000D01*
X231775000Y-113665000D02*
X230505000Y-112395000D01*
X230505000Y-112395000D02*
X173355000Y-112395000D01*
X173355000Y-112395000D02*
X172085000Y-111125000D01*
X120904000Y-86868000D02*
X114300000Y-80264000D01*
X139192000Y-86868000D02*
X120904000Y-86868000D01*
X109728000Y-80264000D02*
X105156000Y-75692000D01*
X105156000Y-75692000D02*
X105156000Y-74788410D01*
X114300000Y-80264000D02*
X109728000Y-80264000D01*
G04 #@! TO.N,KEY_COL_2*
X199263000Y-77771000D02*
X197913000Y-79121000D01*
X199263000Y-76581000D02*
X199263000Y-77771000D01*
X199263000Y-85471000D02*
X197913000Y-84121000D01*
X199263000Y-86741000D02*
X199263000Y-85471000D01*
X199263000Y-96821000D02*
X197913000Y-98171000D01*
X199263000Y-95631000D02*
X199263000Y-96821000D01*
X199263000Y-104521000D02*
X197913000Y-103171000D01*
X199263000Y-105791000D02*
X199263000Y-104521000D01*
X199263000Y-123571000D02*
X197913000Y-122221000D01*
X199263000Y-124841000D02*
X199263000Y-123571000D01*
X199263000Y-115871000D02*
X197913000Y-117221000D01*
X199263000Y-114681000D02*
X199263000Y-115871000D01*
X199263000Y-142621000D02*
X197913000Y-141271000D01*
X199263000Y-143891000D02*
X199263000Y-142621000D01*
X199263000Y-134921000D02*
X197913000Y-136271000D01*
X199263000Y-133731000D02*
X199263000Y-134921000D01*
X199263000Y-132316787D02*
X199263000Y-133731000D01*
X198391213Y-131445000D02*
X199263000Y-132316787D01*
X174625000Y-131445000D02*
X198391213Y-131445000D01*
X169672000Y-138176000D02*
X172466000Y-135382000D01*
X109728000Y-84328000D02*
X112268000Y-84328000D01*
X106172000Y-87884000D02*
X109728000Y-84328000D01*
X168275000Y-130175000D02*
X165100000Y-133350000D01*
X172466000Y-133604000D02*
X174625000Y-131445000D01*
X166116000Y-138176000D02*
X169672000Y-138176000D01*
X97028000Y-74168000D02*
X97028000Y-85344000D01*
X172466000Y-135382000D02*
X172466000Y-133604000D01*
X99060000Y-72136000D02*
X97028000Y-74168000D01*
X99568000Y-87884000D02*
X106172000Y-87884000D01*
X165100000Y-137160000D02*
X166116000Y-138176000D01*
X97028000Y-85344000D02*
X99568000Y-87884000D01*
X112268000Y-84328000D02*
X118872000Y-90932000D01*
X118872000Y-90932000D02*
X141224000Y-90932000D01*
X168275000Y-88900000D02*
X168275000Y-130175000D01*
X141224000Y-90932000D02*
X146812000Y-85344000D01*
X165100000Y-133350000D02*
X165100000Y-137160000D01*
X146812000Y-85344000D02*
X164719000Y-85344000D01*
X164719000Y-85344000D02*
X168275000Y-88900000D01*
G04 #@! TO.N,KEY_COL_3*
X214503000Y-77771000D02*
X213153000Y-79121000D01*
X214503000Y-76581000D02*
X214503000Y-77771000D01*
X214503000Y-85471000D02*
X213153000Y-84121000D01*
X214503000Y-86741000D02*
X214503000Y-85471000D01*
X214503000Y-104521000D02*
X213153000Y-103171000D01*
X214503000Y-105791000D02*
X214503000Y-104521000D01*
X214503000Y-96821000D02*
X213153000Y-98171000D01*
X214503000Y-95631000D02*
X214503000Y-96821000D01*
X214503000Y-123571000D02*
X213153000Y-122221000D01*
X214503000Y-124841000D02*
X214503000Y-123571000D01*
X214503000Y-115871000D02*
X213153000Y-117221000D01*
X214503000Y-114681000D02*
X214503000Y-115871000D01*
X214503000Y-134921000D02*
X213153000Y-136271000D01*
X214503000Y-133731000D02*
X214503000Y-134921000D01*
X214503000Y-142621000D02*
X213153000Y-141271000D01*
X214503000Y-143891000D02*
X214503000Y-142621000D01*
X173736000Y-82296000D02*
X211328000Y-82296000D01*
X170561000Y-79121000D02*
X173736000Y-82296000D01*
X143764000Y-79121000D02*
X170561000Y-79121000D01*
X138049000Y-84836000D02*
X143764000Y-79121000D01*
X121920000Y-84836000D02*
X138049000Y-84836000D01*
X107188000Y-61468000D02*
X111252000Y-61468000D01*
X111252000Y-61468000D02*
X113792000Y-64008000D01*
X113792000Y-64008000D02*
X113792000Y-69596000D01*
X211328000Y-82296000D02*
X213153000Y-84121000D01*
X113792000Y-69596000D02*
X118872000Y-74676000D01*
X118872000Y-74676000D02*
X118872000Y-81788000D01*
X118872000Y-81788000D02*
X121920000Y-84836000D01*
G04 #@! TO.N,KEY_COL_4*
X229743000Y-77771000D02*
X228393000Y-79121000D01*
X229743000Y-76581000D02*
X229743000Y-77771000D01*
X229743000Y-85471000D02*
X228393000Y-84121000D01*
X229743000Y-86741000D02*
X229743000Y-85471000D01*
X229743000Y-96821000D02*
X228393000Y-98171000D01*
X229743000Y-95631000D02*
X229743000Y-96821000D01*
X229743000Y-104521000D02*
X228393000Y-103171000D01*
X229743000Y-105791000D02*
X229743000Y-104521000D01*
X229743000Y-123571000D02*
X228393000Y-122221000D01*
X229743000Y-124841000D02*
X229743000Y-123571000D01*
X229743000Y-115871000D02*
X228393000Y-117221000D01*
X229743000Y-114681000D02*
X229743000Y-115871000D01*
X229743000Y-142621000D02*
X228393000Y-141271000D01*
X229743000Y-143891000D02*
X229743000Y-142621000D01*
X229743000Y-134921000D02*
X228393000Y-136271000D01*
X229743000Y-133731000D02*
X229743000Y-134921000D01*
X228393000Y-139856787D02*
X228393000Y-141271000D01*
X227728213Y-139192000D02*
X228393000Y-139856787D01*
X158750000Y-137160000D02*
X160782000Y-139192000D01*
X110236000Y-85344000D02*
X111760000Y-85344000D01*
X160782000Y-139192000D02*
X227728213Y-139192000D01*
X106680000Y-88900000D02*
X110236000Y-85344000D01*
X99060000Y-88900000D02*
X106680000Y-88900000D01*
X96012000Y-73152000D02*
X96012000Y-85852000D01*
X118364000Y-91948000D02*
X141732000Y-91948000D01*
X98044000Y-71120000D02*
X96012000Y-73152000D01*
X111760000Y-85344000D02*
X118364000Y-91948000D01*
X141732000Y-91948000D02*
X147320000Y-86360000D01*
X147320000Y-86360000D02*
X163830000Y-86360000D01*
X163830000Y-86360000D02*
X167005000Y-89535000D01*
X167005000Y-89535000D02*
X167005000Y-128905000D01*
X167005000Y-128905000D02*
X164465000Y-131445000D01*
X158750000Y-132715000D02*
X158750000Y-137160000D01*
X164465000Y-131445000D02*
X160020000Y-131445000D01*
X96012000Y-85852000D02*
X99060000Y-88900000D01*
X160020000Y-131445000D02*
X158750000Y-132715000D01*
G04 #@! TO.N,DISP_V0*
X92456000Y-49784000D02*
X90932000Y-51308000D01*
X109728000Y-58928000D02*
X109728000Y-54864000D01*
X109728000Y-54864000D02*
X104648000Y-49784000D01*
X105975754Y-65964947D02*
X106172000Y-65768701D01*
X105975754Y-69088000D02*
X105975754Y-65964947D01*
X106172000Y-65768701D02*
X106172000Y-60960000D01*
X106172000Y-60960000D02*
X107188000Y-59944000D01*
X104648000Y-49784000D02*
X92456000Y-49784000D01*
X107188000Y-59944000D02*
X108712000Y-59944000D01*
X108712000Y-59944000D02*
X109728000Y-58928000D01*
X69977000Y-90043000D02*
X69977000Y-92075000D01*
X84328000Y-75692000D02*
X69977000Y-90043000D01*
X84328000Y-64008000D02*
X84328000Y-75692000D01*
X84836000Y-51308000D02*
X84836000Y-63500000D01*
X84836000Y-63500000D02*
X84328000Y-64008000D01*
G04 #@! TO.N,DISP_D3*
X100830264Y-68072000D02*
X100904927Y-67997337D01*
X99388663Y-67997337D02*
X100904927Y-67997337D01*
X96012000Y-71374000D02*
X99388663Y-67997337D01*
X90932000Y-84836000D02*
X90932000Y-71374000D01*
X87757000Y-92075000D02*
X87757000Y-88011000D01*
X87757000Y-88011000D02*
X90932000Y-84836000D01*
G04 #@! TO.N,DISP_D4*
X90932000Y-53848000D02*
X90932000Y-68580000D01*
X93980000Y-50800000D02*
X90932000Y-53848000D01*
X108712000Y-55372000D02*
X104140000Y-50800000D01*
X104140000Y-50800000D02*
X93980000Y-50800000D01*
X108712000Y-58420000D02*
X108712000Y-55372000D01*
X108204000Y-58928000D02*
X108712000Y-58420000D01*
X103444927Y-65457337D02*
X104697142Y-65457337D01*
X91948000Y-88265000D02*
X90297000Y-89916000D01*
X104697142Y-65457337D02*
X104705754Y-65465949D01*
X90297000Y-89916000D02*
X90297000Y-92075000D01*
X90932000Y-68580000D02*
X91948000Y-69596000D01*
X104705754Y-65465949D02*
X105156000Y-65015703D01*
X105156000Y-65015703D02*
X105156000Y-60452000D01*
X105156000Y-60452000D02*
X106680000Y-58928000D01*
X91948000Y-69596000D02*
X91948000Y-88265000D01*
X106680000Y-58928000D02*
X108204000Y-58928000D01*
D48*
G04 #@! TO.N,DISP_D5*
X102154928Y-61627338D02*
X99727338Y-61627338D01*
X103444927Y-62917337D02*
X102154928Y-61627338D01*
D46*
X92837000Y-89408000D02*
X92837000Y-92075000D01*
X92964000Y-89281000D02*
X92837000Y-89408000D01*
X92964000Y-63659338D02*
X92964000Y-89281000D01*
X94996000Y-61627338D02*
X92964000Y-63659338D01*
X99727338Y-61627338D02*
X94996000Y-61627338D01*
G04 #@! TO.N,DISP_D6*
X94488000Y-65457337D02*
X100904927Y-65457337D01*
X93980000Y-65965337D02*
X94488000Y-65457337D01*
X93980000Y-87376000D02*
X93980000Y-65965337D01*
X95377000Y-88773000D02*
X93980000Y-87376000D01*
X95377000Y-92075000D02*
X95377000Y-88773000D01*
G04 #@! TO.N,DISP_D7*
X94996000Y-86868000D02*
X94996000Y-69596000D01*
X97917000Y-92075000D02*
X97917000Y-89789000D01*
X97917000Y-89789000D02*
X94996000Y-86868000D01*
X100904927Y-62917337D02*
X96086663Y-62917337D01*
X96086663Y-62917337D02*
X94996000Y-64008000D01*
X94996000Y-64008000D02*
X94996000Y-64008000D01*
X94996000Y-69596000D02*
X94996000Y-66548000D01*
D48*
G04 #@! TO.N,DISP_RS*
X127545755Y-64175950D02*
X125135950Y-64175950D01*
X128835754Y-65465949D02*
X127545755Y-64175950D01*
D46*
X72517000Y-90043000D02*
X72517000Y-92075000D01*
X85852000Y-64516000D02*
X85344000Y-65024000D01*
X85852000Y-48260000D02*
X85852000Y-64516000D01*
X123611950Y-64175950D02*
X120904000Y-61468000D01*
X125135950Y-64175950D02*
X123611950Y-64175950D01*
X120904000Y-61468000D02*
X120904000Y-54864000D01*
X85344000Y-77216000D02*
X72517000Y-90043000D01*
X120904000Y-54864000D02*
X110744000Y-44704000D01*
X85344000Y-65024000D02*
X85344000Y-77216000D01*
X110744000Y-44704000D02*
X89408000Y-44704000D01*
X89408000Y-44704000D02*
X85852000Y-48260000D01*
G04 #@! TO.N,DISP_EN*
X126295754Y-68005949D02*
X125660754Y-68005949D01*
X120075949Y-67243949D02*
X118872000Y-66040000D01*
X120837949Y-68005949D02*
X120075949Y-67243949D01*
X126295754Y-68005949D02*
X120837949Y-68005949D01*
G04 #@! TO.N,DISP_D0*
X80137000Y-88519000D02*
X80137000Y-92075000D01*
X87376000Y-81280000D02*
X80137000Y-88519000D01*
X87376000Y-67564000D02*
X87376000Y-81280000D01*
X87884000Y-49276000D02*
X87884000Y-67056000D01*
X119821949Y-70545949D02*
X116840000Y-67564000D01*
X126295754Y-70545949D02*
X119821949Y-70545949D01*
X87884000Y-67056000D02*
X87376000Y-67564000D01*
X116840000Y-67564000D02*
X116840000Y-57404000D01*
X116840000Y-57404000D02*
X106172000Y-46736000D01*
X106172000Y-46736000D02*
X90424000Y-46736000D01*
X90424000Y-46736000D02*
X87884000Y-49276000D01*
D48*
G04 #@! TO.N,DISP_D1*
X127585753Y-71795950D02*
X125135950Y-71795950D01*
X128835754Y-70545949D02*
X127585753Y-71795950D01*
D46*
X82677000Y-88519000D02*
X82677000Y-92075000D01*
X88392000Y-82804000D02*
X82677000Y-88519000D01*
X88900000Y-68326000D02*
X88392000Y-68834000D01*
X88900000Y-49784000D02*
X88900000Y-68326000D01*
X119547950Y-71795950D02*
X115824000Y-68072000D01*
X125135950Y-71795950D02*
X119547950Y-71795950D01*
X115824000Y-68072000D02*
X115824000Y-57912000D01*
X88392000Y-68834000D02*
X88392000Y-82804000D01*
X115824000Y-57912000D02*
X105664000Y-47752000D01*
X105664000Y-47752000D02*
X90932000Y-47752000D01*
X90932000Y-47752000D02*
X88900000Y-49784000D01*
G04 #@! TO.N,DISP_D2*
X114808000Y-58420000D02*
X114808000Y-68580000D01*
X105156000Y-48768000D02*
X114808000Y-58420000D01*
X119313949Y-73085949D02*
X126295754Y-73085949D01*
X91440000Y-48768000D02*
X105156000Y-48768000D01*
X85217000Y-92075000D02*
X85217000Y-88011000D01*
X85217000Y-88011000D02*
X89408000Y-83820000D01*
X89408000Y-83820000D02*
X89408000Y-70358000D01*
X114808000Y-68580000D02*
X119313949Y-73085949D01*
X89408000Y-70358000D02*
X89916000Y-69850000D01*
X89916000Y-69850000D02*
X89916000Y-50292000D01*
X89916000Y-50292000D02*
X91440000Y-48768000D01*
G04 #@! TO.N,Net-(Q1-Pad1)*
X110998000Y-88646000D02*
X115316000Y-92964000D01*
X110998000Y-87122000D02*
X110998000Y-88646000D01*
X115316000Y-92964000D02*
X142240000Y-92964000D01*
X142240000Y-92964000D02*
X147828000Y-87376000D01*
X147828000Y-87376000D02*
X153416000Y-87376000D01*
X153416000Y-87376000D02*
X154940000Y-88900000D01*
X154940000Y-89916000D02*
X154940000Y-88900000D01*
G04 #@! TO.N,VBAT*
X126229703Y-80772000D02*
X126295754Y-80705949D01*
D48*
X127585753Y-79415950D02*
X129880050Y-79415950D01*
X126295754Y-80705949D02*
X127585753Y-79415950D01*
D47*
X176022000Y-45974000D02*
X173736000Y-43688000D01*
X179070000Y-45974000D02*
X176022000Y-45974000D01*
D46*
X179070000Y-47374000D02*
X179070000Y-45974000D01*
X181226000Y-49530000D02*
X179070000Y-47374000D01*
X181226000Y-56766000D02*
X181226000Y-49530000D01*
X186055000Y-61595000D02*
X181226000Y-56766000D01*
X186055000Y-68580000D02*
X186055000Y-61595000D01*
X163916050Y-75859950D02*
X168656000Y-71120000D01*
X168656000Y-71120000D02*
X183515000Y-71120000D01*
X183515000Y-71120000D02*
X186055000Y-68580000D01*
X130896050Y-79415950D02*
X129880050Y-79415950D01*
X141056050Y-79415950D02*
X130896050Y-79415950D01*
X141056050Y-75859950D02*
X141732000Y-75859950D01*
X141732000Y-75859950D02*
X163916050Y-75859950D01*
G04 #@! TO.N,UART1_TX*
X137668000Y-59944000D02*
X136144000Y-58420000D01*
X136144000Y-58420000D02*
X133096000Y-55372000D01*
X150671000Y-59944000D02*
X137668000Y-59944000D01*
X151003000Y-59612000D02*
X150671000Y-59944000D01*
X151003000Y-57912000D02*
X151003000Y-59612000D01*
G04 #@! TO.N,UART1_RX*
X153543000Y-59612000D02*
X153543000Y-57912000D01*
X151479052Y-61675948D02*
X153543000Y-59612000D01*
X133396052Y-61675948D02*
X151479052Y-61675948D01*
G04 #@! TO.N,UART3_TX*
X130037835Y-60385949D02*
X128835754Y-60385949D01*
X130672835Y-50631118D02*
X130672835Y-59750949D01*
X69215000Y-79121000D02*
X69215000Y-58420000D01*
X68072000Y-80264000D02*
X69215000Y-79121000D01*
X130672835Y-59750949D02*
X130037835Y-60385949D01*
X69215000Y-58420000D02*
X86487000Y-41148000D01*
X127285717Y-47244000D02*
X130672835Y-50631118D01*
X86487000Y-41148000D02*
X113284000Y-41148000D01*
X113284000Y-41148000D02*
X119380000Y-47244000D01*
X119380000Y-47244000D02*
X127285717Y-47244000D01*
G04 #@! TO.N,UART3_RX*
X123885949Y-62925949D02*
X126295754Y-62925949D01*
X72136000Y-59436000D02*
X87884000Y-43688000D01*
X87884000Y-43688000D02*
X111252000Y-43688000D01*
X72136000Y-71120000D02*
X72136000Y-59436000D01*
X111252000Y-43688000D02*
X121920000Y-54356000D01*
X121920000Y-54356000D02*
X121920000Y-60960000D01*
X121920000Y-60960000D02*
X123885949Y-62925949D01*
G04 #@! TO.N,Net-(D2-Pad2)*
X136652000Y-66548000D02*
X136652000Y-63500000D01*
X138176000Y-71120000D02*
X138176000Y-68072000D01*
X138176000Y-68072000D02*
X136652000Y-66548000D01*
D48*
G04 #@! TO.N,Net-(R6-Pad1)*
X102154928Y-59087338D02*
X99727338Y-59087338D01*
X103444927Y-60377337D02*
X102154928Y-59087338D01*
D46*
X99727338Y-59087338D02*
X97695338Y-59087338D01*
X92964000Y-54356000D02*
X97695338Y-59087338D01*
G04 #@! TO.N,Net-(SW1-Pad2)*
X168656000Y-142621000D02*
X167306000Y-141271000D01*
X168656000Y-143891000D02*
X168656000Y-142621000D01*
X168656000Y-134921000D02*
X167306000Y-136271000D01*
X168656000Y-133731000D02*
X168656000Y-134921000D01*
X168656000Y-131699000D02*
X168656000Y-133731000D01*
X169545000Y-130810000D02*
X168656000Y-131699000D01*
X169545000Y-86360000D02*
X169545000Y-130810000D01*
X145796000Y-83312000D02*
X166497000Y-83312000D01*
X140208000Y-88900000D02*
X145796000Y-83312000D01*
X113284000Y-82296000D02*
X119888000Y-88900000D01*
X108712000Y-82296000D02*
X113284000Y-82296000D01*
X119888000Y-88900000D02*
X140208000Y-88900000D01*
X100904927Y-75617337D02*
X99702846Y-75617337D01*
X99702846Y-75617337D02*
X99060000Y-76260183D01*
X99060000Y-76260183D02*
X99060000Y-84455000D01*
X166497000Y-83312000D02*
X169545000Y-86360000D01*
X99060000Y-84455000D02*
X100395010Y-85790010D01*
X100395010Y-85790010D02*
X105217990Y-85790010D01*
X105217990Y-85790010D02*
X108712000Y-82296000D01*
G04 #@! TO.N,ESP_RST*
X130105754Y-62925949D02*
X128835754Y-62925949D01*
X132010754Y-61020949D02*
X130105754Y-62925949D01*
X132010754Y-50730754D02*
X132010754Y-61020949D01*
X127508000Y-46228000D02*
X132010754Y-50730754D01*
X119888000Y-46228000D02*
X127508000Y-46228000D01*
X67056000Y-76200000D02*
X67945000Y-75311000D01*
X66040000Y-76200000D02*
X67056000Y-76200000D01*
X67945000Y-75311000D02*
X67945000Y-57150000D01*
X67945000Y-57150000D02*
X84963000Y-40132000D01*
X84963000Y-40132000D02*
X113792000Y-40132000D01*
X113792000Y-40132000D02*
X119888000Y-46228000D01*
G04 #@! TO.N,ESP_EN*
X128835754Y-50095754D02*
X128835754Y-52765949D01*
X70612000Y-58928000D02*
X87376000Y-42164000D01*
X70612000Y-73660000D02*
X70612000Y-58928000D01*
X87376000Y-42164000D02*
X112776000Y-42164000D01*
X112776000Y-42164000D02*
X118872000Y-48260000D01*
X118872000Y-48260000D02*
X127000000Y-48260000D01*
X127000000Y-48260000D02*
X128835754Y-50095754D01*
G04 #@! TO.N,Net-(C13-Pad1)*
X161163000Y-63832000D02*
X162306000Y-62689000D01*
X161163000Y-65532000D02*
X161163000Y-63832000D01*
X162306000Y-62689000D02*
X165051000Y-62689000D01*
X165862000Y-63500000D02*
X169037000Y-63500000D01*
X165051000Y-62689000D02*
X165862000Y-63500000D01*
G04 #@! TO.N,LED_OK*
X123805904Y-77953802D02*
X122492087Y-77953802D01*
X126295754Y-78165949D02*
X124018051Y-78165949D01*
X124018051Y-78165949D02*
X123805904Y-77953802D01*
G04 #@! TO.N,LED_ERR*
X136718051Y-83245949D02*
X128835754Y-83245949D01*
X138176000Y-81280000D02*
X138176000Y-81788000D01*
X138176000Y-81788000D02*
X136718051Y-83245949D01*
D47*
G04 #@! TO.N,Net-(C3-Pad1)*
X173736000Y-56175000D02*
X173736000Y-53848000D01*
X182245000Y-62484000D02*
X180045000Y-62484000D01*
X180045000Y-62484000D02*
X173736000Y-56175000D01*
D46*
G04 #@! TO.N,Net-(R7-Pad1)*
X77597000Y-88392000D02*
X77597000Y-92075000D01*
X77597000Y-88011000D02*
X77597000Y-88392000D01*
X86360000Y-79248000D02*
X77597000Y-88011000D01*
X108712000Y-45720000D02*
X89916000Y-45720000D01*
X118872000Y-55880000D02*
X108712000Y-45720000D01*
X89916000Y-45720000D02*
X86868000Y-48768000D01*
X86868000Y-65786000D02*
X86360000Y-66294000D01*
X86868000Y-48768000D02*
X86868000Y-65786000D01*
X86360000Y-66294000D02*
X86360000Y-79248000D01*
G04 #@! TO.N,Net-(D6-Pad2)*
X122936000Y-42164000D02*
X132080000Y-42164000D01*
G04 #@! TO.N,Net-(F1-Pad2)*
X243586000Y-69596000D02*
X243586000Y-67056000D01*
D47*
X228092000Y-45212000D02*
X228092000Y-44450000D01*
X243586000Y-67056000D02*
X243586000Y-62484000D01*
X243586000Y-62484000D02*
X240284000Y-59182000D01*
X240284000Y-59182000D02*
X231140000Y-59182000D01*
X231140000Y-59182000D02*
X230378000Y-58420000D01*
X230378000Y-58420000D02*
X230378000Y-47498000D01*
X230378000Y-47498000D02*
X228092000Y-45212000D01*
X243586000Y-102362000D02*
X243586000Y-69596000D01*
X244348000Y-103124000D02*
X243586000Y-102362000D01*
X244348000Y-114300000D02*
X244348000Y-103124000D01*
X238252000Y-137916000D02*
X238252000Y-120396000D01*
X238252000Y-120396000D02*
X244348000Y-114300000D01*
D46*
G04 #@! TO.N,Net-(J3-Pad1)*
X128835754Y-80705949D02*
X130489949Y-80705949D01*
X131064000Y-81280000D02*
X133096000Y-81280000D01*
X130489949Y-80705949D02*
X131064000Y-81280000D01*
X133096000Y-81280000D02*
X134112000Y-81280000D01*
D47*
G04 #@! TO.N,Net-(R8-Pad1)*
X100457000Y-94375000D02*
X100457000Y-92075000D01*
X99582000Y-95250000D02*
X100457000Y-94375000D01*
X64135000Y-95250000D02*
X99582000Y-95250000D01*
X62574815Y-93689815D02*
X64135000Y-95250000D01*
X62574815Y-90006815D02*
X59944000Y-87376000D01*
X62574815Y-93689815D02*
X62574815Y-90006815D01*
D46*
G04 #@! TO.N,Net-(C10-Pad1)*
X163703000Y-69850000D02*
X163703000Y-65532000D01*
X162941000Y-70612000D02*
X163703000Y-69850000D01*
G04 #@! TO.N,Net-(C10-Pad2)*
X158623000Y-68794000D02*
X160441000Y-70612000D01*
X158623000Y-65532000D02*
X158623000Y-68794000D01*
G04 #@! TO.N,Net-(C12-Pad1)*
X156083000Y-70612000D02*
X156083000Y-65532000D01*
G04 #@! TO.N,Net-(C12-Pad2)*
X153583000Y-65572000D02*
X153543000Y-65532000D01*
X153583000Y-70612000D02*
X153583000Y-65572000D01*
G04 #@! TO.N,Net-(C14-Pad2)*
X151003000Y-69048000D02*
X151003000Y-65532000D01*
X149439000Y-70612000D02*
X151003000Y-69048000D01*
G04 #@! TO.N,Net-(J12-Pad1)*
X148463000Y-54356000D02*
X148336000Y-54229000D01*
X148463000Y-54737000D02*
X148336000Y-54610000D01*
X148463000Y-57912000D02*
X148463000Y-54737000D01*
D47*
G04 #@! TO.N,Net-(R8-Pad2)*
X70104000Y-87376000D02*
X70104000Y-84328000D01*
G04 #@! TO.N,Net-(Q1-Pad3)*
X155956000Y-96520000D02*
X157988000Y-96520000D01*
X145796000Y-96520000D02*
X155956000Y-96520000D01*
X143764000Y-94488000D02*
X145796000Y-96520000D01*
X110998000Y-94488000D02*
X143764000Y-94488000D01*
X102997000Y-92075000D02*
X108585000Y-92075000D01*
X108585000Y-92075000D02*
X110998000Y-94488000D01*
D46*
G04 #@! TO.N,ADC_BATT*
X164973000Y-84328000D02*
X165608000Y-84328000D01*
X146304000Y-84328000D02*
X164973000Y-84328000D01*
X100904927Y-73077337D02*
X99702846Y-73077337D01*
X119380000Y-89916000D02*
X140716000Y-89916000D01*
X99702846Y-73077337D02*
X98044000Y-74736183D01*
X140716000Y-89916000D02*
X146304000Y-84328000D01*
X98044000Y-84836000D02*
X100076000Y-86868000D01*
X100076000Y-86868000D02*
X105664000Y-86868000D01*
X112776000Y-83312000D02*
X119380000Y-89916000D01*
X109220000Y-83312000D02*
X112776000Y-83312000D01*
X98044000Y-74736183D02*
X98044000Y-84836000D01*
X105664000Y-86868000D02*
X109220000Y-83312000D01*
X210820000Y-72517000D02*
X210820000Y-71120000D01*
X210312000Y-73025000D02*
X210820000Y-72517000D01*
X165608000Y-76200000D02*
X169545000Y-76200000D01*
X169545000Y-76200000D02*
X172720000Y-73025000D01*
X203200000Y-72251370D02*
X203200000Y-73025000D01*
X203200000Y-71120000D02*
X203200000Y-72251370D01*
X173736000Y-73025000D02*
X203200000Y-73025000D01*
X205740000Y-71120000D02*
X205740000Y-73025000D01*
X203200000Y-73025000D02*
X205740000Y-73025000D01*
X205740000Y-73025000D02*
X210312000Y-73025000D01*
X172720000Y-73025000D02*
X173736000Y-73025000D01*
D47*
G04 #@! TO.N,+BATT*
X231648000Y-72263000D02*
X231648000Y-72136000D01*
D46*
X222250000Y-71120000D02*
X220980000Y-71120000D01*
X223266000Y-72136000D02*
X222250000Y-71120000D01*
X231648000Y-72136000D02*
X223266000Y-72136000D01*
D47*
X231648000Y-72644000D02*
X231648000Y-72136000D01*
X234696000Y-75692000D02*
X231648000Y-72644000D01*
X238252000Y-115316000D02*
X234696000Y-111760000D01*
X234696000Y-111760000D02*
X234696000Y-75692000D01*
D46*
G04 #@! TO.N,Net-(JP2-Pad2)*
X132846000Y-66324000D02*
X133096000Y-66324000D01*
X131164051Y-68005949D02*
X132846000Y-66324000D01*
X128835754Y-68005949D02*
X131164051Y-68005949D01*
G04 #@! TO.N,Net-(JP3-Pad2)*
X132846000Y-70754000D02*
X133096000Y-70754000D01*
X130514051Y-73085949D02*
X132846000Y-70754000D01*
X128835754Y-73085949D02*
X130514051Y-73085949D01*
G04 #@! TO.N,Net-(JP4-Pad2)*
X133096000Y-76200000D02*
X133096000Y-75326000D01*
D47*
G04 #@! TO.N,Net-(F3-Pad1)*
X238252000Y-76708000D02*
X238252000Y-78232000D01*
X234188000Y-72644000D02*
X238252000Y-76708000D01*
X223520000Y-67056000D02*
X230632000Y-67056000D01*
X230632000Y-67056000D02*
X234188000Y-70612000D01*
X183388000Y-44196000D02*
X187960000Y-48768000D01*
X234188000Y-70612000D02*
X234188000Y-72644000D01*
X183388000Y-42672000D02*
X183388000Y-44196000D01*
X187960000Y-48768000D02*
X187960000Y-60960000D01*
X187960000Y-60960000D02*
X195580000Y-68580000D01*
X195580000Y-68580000D02*
X221996000Y-68580000D01*
X221996000Y-68580000D02*
X223520000Y-67056000D01*
G04 #@! TO.N,Net-(C2-Pad1)*
X226314000Y-59703000D02*
X226314000Y-62103000D01*
X219710000Y-57515728D02*
X224126728Y-57515728D01*
X224126728Y-57515728D02*
X226314000Y-59703000D01*
X226441000Y-61976000D02*
X226314000Y-62103000D01*
X218317720Y-57515728D02*
X219710000Y-57515728D01*
X214639720Y-59944000D02*
X215889448Y-59944000D01*
X215889448Y-59944000D02*
X218317720Y-57515728D01*
X231648000Y-61976000D02*
X226441000Y-61976000D01*
D46*
G04 #@! TO.N,Net-(J4-Pad1)*
X95885000Y-54055000D02*
X95885000Y-52705000D01*
X97127337Y-55297337D02*
X95885000Y-54055000D01*
X100904927Y-55297337D02*
X97127337Y-55297337D01*
D47*
G04 #@! TO.N,+5V*
X66730000Y-84328000D02*
X61849000Y-84328000D01*
X70794000Y-80264000D02*
X66730000Y-84328000D01*
X72644000Y-80264000D02*
X70794000Y-80264000D01*
X67437000Y-85035000D02*
X66730000Y-84328000D01*
X67437000Y-92075000D02*
X67437000Y-85035000D01*
X177953529Y-37438471D02*
X178308000Y-37084000D01*
X178308000Y-37084000D02*
X194564000Y-37084000D01*
X173990000Y-37692471D02*
X174244000Y-37438471D01*
X173990000Y-38608000D02*
X173990000Y-37692471D01*
X123006805Y-37438471D02*
X174244000Y-37438471D01*
X174244000Y-37438471D02*
X177953529Y-37438471D01*
X58764815Y-83148815D02*
X59944000Y-84328000D01*
X58764815Y-60107185D02*
X58764815Y-83148815D01*
X81788000Y-37084000D02*
X58764815Y-60107185D01*
X115824000Y-37084000D02*
X81788000Y-37084000D01*
X116178471Y-37438471D02*
X115824000Y-37084000D01*
X123006805Y-37438471D02*
X116178471Y-37438471D01*
D46*
G04 #@! TO.N,Net-(J13-Pad1)*
X145923000Y-57912000D02*
X145923000Y-57512000D01*
X145923000Y-57512000D02*
X144526000Y-56115000D01*
X144526000Y-56115000D02*
X144526000Y-54610000D01*
G04 #@! TO.N,Net-(J14-Pad1)*
X148463000Y-67437000D02*
X148463000Y-65532000D01*
X147701000Y-68199000D02*
X148463000Y-67437000D01*
X143256000Y-68199000D02*
X147701000Y-68199000D01*
X142367000Y-70612000D02*
X142367000Y-69088000D01*
X142367000Y-69088000D02*
X143256000Y-68199000D01*
G04 #@! TO.N,Net-(J15-Pad1)*
X143844000Y-65532000D02*
X144526000Y-65532000D01*
X143717000Y-65659000D02*
X143844000Y-65532000D01*
X142367000Y-65659000D02*
X143717000Y-65659000D01*
X144526000Y-65532000D02*
X145923000Y-65532000D01*
D47*
G04 #@! TO.N,Net-(J16-Pad5)*
X179828000Y-40002000D02*
X193548000Y-40002000D01*
D46*
G04 #@! TO.N,Net-(J17-Pad3)*
X158623000Y-54610000D02*
X158623000Y-57912000D01*
X154130000Y-48260000D02*
X154130000Y-50117000D01*
X154130000Y-50117000D02*
X158623000Y-54610000D01*
G04 #@! TO.N,Net-(J17-Pad2)*
X156083000Y-57512000D02*
X156083000Y-57912000D01*
X156083000Y-56212000D02*
X156083000Y-57912000D01*
X151360000Y-48260000D02*
X151360000Y-51489000D01*
X151360000Y-51489000D02*
X156083000Y-56212000D01*
G04 #@! TO.N,Net-(JP1-Pad2)*
X125034051Y-65465949D02*
X126295754Y-65465949D01*
X124460000Y-66040000D02*
X125034051Y-65465949D01*
X123586000Y-66040000D02*
X124460000Y-66040000D01*
D47*
G04 #@! TO.N,Net-(R13-Pad1)*
X105081337Y-55297337D02*
X106680000Y-56896000D01*
X103444927Y-55297337D02*
X105081337Y-55297337D01*
G04 #@! TD*
D49*
G04 #@! TO.N,+3V3*
G36*
X223901000Y-55753000D02*
X205313131Y-55753000D01*
X202430000Y-52869869D01*
X202430000Y-45124068D01*
X213388009Y-45124068D01*
X213573113Y-46054648D01*
X214100244Y-46843557D01*
X214889153Y-47370688D01*
X215584836Y-47509068D01*
X216054630Y-47509068D01*
X216750313Y-47370688D01*
X217539222Y-46843557D01*
X218066353Y-46054648D01*
X218251457Y-45124068D01*
X218066353Y-44193488D01*
X217539222Y-43404579D01*
X216750313Y-42877448D01*
X216054630Y-42739068D01*
X215584836Y-42739068D01*
X214889153Y-42877448D01*
X214100244Y-43404579D01*
X213573113Y-44193488D01*
X213388009Y-45124068D01*
X202430000Y-45124068D01*
X202430000Y-43799783D01*
X202452235Y-43688000D01*
X202364146Y-43245145D01*
X202311000Y-43165606D01*
X202311000Y-36195000D01*
X223901000Y-36195000D01*
X223901000Y-55753000D01*
X223901000Y-55753000D01*
G37*
X223901000Y-55753000D02*
X205313131Y-55753000D01*
X202430000Y-52869869D01*
X202430000Y-45124068D01*
X213388009Y-45124068D01*
X213573113Y-46054648D01*
X214100244Y-46843557D01*
X214889153Y-47370688D01*
X215584836Y-47509068D01*
X216054630Y-47509068D01*
X216750313Y-47370688D01*
X217539222Y-46843557D01*
X218066353Y-46054648D01*
X218251457Y-45124068D01*
X218066353Y-44193488D01*
X217539222Y-43404579D01*
X216750313Y-42877448D01*
X216054630Y-42739068D01*
X215584836Y-42739068D01*
X214889153Y-42877448D01*
X214100244Y-43404579D01*
X213573113Y-44193488D01*
X213388009Y-45124068D01*
X202430000Y-45124068D01*
X202430000Y-43799783D01*
X202452235Y-43688000D01*
X202364146Y-43245145D01*
X202311000Y-43165606D01*
X202311000Y-36195000D01*
X223901000Y-36195000D01*
X223901000Y-55753000D01*
G04 #@! TD*
M02*
