<?xml version="1.0" standalone="no"?>
 <!DOCTYPE svg PUBLIC "-//W3C//DTD SVG 1.1//EN" 
 "http://www.w3.org/Graphics/SVG/1.1/DTD/svg11.dtd"> 
<svg xmlns="http://www.w3.org/2000/svg" version="1.1" 
    width="21.5036cm" height="12.5044cm" viewBox="0 0 84660 49230 ">
<title>SVG Picture created as CT800_PANEL_SPARTAN_FR-brd.svg date 2019/01/17 15:35:26 </title>
  <desc>Picture generated by PCBNEW </desc>
<g style="fill:#000000; fill-opacity:1;stroke:#000000; stroke-opacity:1;
stroke-linecap:round; stroke-linejoin:round; "
 transform="translate(0 0) scale(1 1)">
</g>
<g style="fill:#000000; fill-opacity:0.0; 
stroke:#000000; stroke-width:-0.000393701; stroke-opacity:1; 
stroke-linecap:round; stroke-linejoin:round;">
</g>
<g style="fill:#0000ff; fill-opacity:0.0; 
stroke:#0000ff; stroke-width:19.685; stroke-opacity:1; 
stroke-linecap:round; stroke-linejoin:round;">
<path d="M9 9
L84655 9
" />
<path d="M84655 9
L84655 49222
" />
<path d="M84655 49222
L9 49222
" />
<path d="M9 49222
L9 9
" />
<circle cx="74516.9" cy="41250.4" r="2007.87" /> 
<circle cx="68516.9" cy="41250.4" r="2007.87" /> 
<circle cx="62516.9" cy="41250.4" r="2007.87" /> 
<circle cx="56516.9" cy="41250.4" r="2007.87" /> 
<circle cx="50466.9" cy="41250.4" r="2007.87" /> 
<circle cx="74516.9" cy="33750.4" r="2007.87" /> 
<circle cx="68516.9" cy="33750.4" r="2007.87" /> 
<circle cx="62516.9" cy="33750.4" r="2007.87" /> 
<circle cx="56516.9" cy="33750.4" r="2007.87" /> 
<circle cx="74516.9" cy="26250.4" r="2007.87" /> 
<circle cx="68516.9" cy="26250.4" r="2007.87" /> 
<circle cx="62516.9" cy="26250.4" r="2007.87" /> 
<circle cx="56516.9" cy="26250.4" r="2007.87" /> 
<circle cx="74516.9" cy="18750.4" r="2007.87" /> 
<circle cx="68516.9" cy="18750.4" r="2007.87" /> 
<circle cx="62516.9" cy="18750.4" r="2007.87" /> 
<circle cx="56516.9" cy="18750.4" r="2007.87" /> 
<circle cx="48582.7" cy="29616.1" r="629.921" /> 
<circle cx="4582.68" cy="43116.1" r="629.921" /> 
<circle cx="80082.7" cy="43116.1" r="629.921" /> 
<circle cx="80082.7" cy="6116.14" r="629.921" /> 
<circle cx="4582.68" cy="6116.14" r="629.921" /> 
</g> 
</svg>
