<?xml version="1.0" standalone="no"?>
 <!DOCTYPE svg PUBLIC "-//W3C//DTD SVG 1.1//EN" 
 "http://www.w3.org/Graphics/SVG/1.1/DTD/svg11.dtd"> 
<svg xmlns="http://www.w3.org/2000/svg" version="1.1" 
    width="20.955cm" height="12.5527cm" viewBox="0 0 82500 49420 ">
<title>SVG Picture created as CT800_PANEL_CLASSIC-brd.svg date 2019/01/17 15:34:40 </title>
  <desc>Picture generated by PCBNEW </desc>
<g style="fill:#000000; fill-opacity:1;stroke:#000000; stroke-opacity:1;
stroke-linecap:round; stroke-linejoin:round; "
 transform="translate(0 0) scale(1 1)">
</g>
<g style="fill:#000000; fill-opacity:0.0; 
stroke:#000000; stroke-width:-0.000393701; stroke-opacity:1; 
stroke-linecap:round; stroke-linejoin:round;">
</g>
<g style="fill:#0000ff; fill-opacity:0.0; 
stroke:#0000ff; stroke-width:19.685; stroke-opacity:1; 
stroke-linecap:round; stroke-linejoin:round;">
<path d="M9 9
L82490 9
" />
<path d="M82490 9
L82490 49419
" />
<path d="M82490 49419
L9 49419
" />
<path d="M9 49419
L9 9
" />
<circle cx="1879.92" cy="1879.92" r="629.921" /> 
<circle cx="1879.92" cy="47549.2" r="629.921" /> 
<circle cx="80620.1" cy="1879.92" r="629.921" /> 
<circle cx="80620.1" cy="47549.2" r="629.921" /> 
<circle cx="73434.3" cy="41348.8" r="2007.87" /> 
<circle cx="67434.3" cy="41348.8" r="2007.87" /> 
<circle cx="61434.3" cy="41348.8" r="2007.87" /> 
<circle cx="55434.3" cy="41348.8" r="2007.87" /> 
<circle cx="49384.3" cy="41348.8" r="2007.87" /> 
<circle cx="73434.3" cy="33848.8" r="2007.87" /> 
<circle cx="67434.3" cy="33848.8" r="2007.87" /> 
<circle cx="61434.3" cy="33848.8" r="2007.87" /> 
<circle cx="55434.3" cy="33848.8" r="2007.87" /> 
<circle cx="73434.3" cy="26348.8" r="2007.87" /> 
<circle cx="67434.3" cy="26348.8" r="2007.87" /> 
<circle cx="61434.3" cy="26348.8" r="2007.87" /> 
<circle cx="55434.3" cy="26348.8" r="2007.87" /> 
<circle cx="73434.3" cy="18848.8" r="2007.87" /> 
<circle cx="67434.3" cy="18848.8" r="2007.87" /> 
<circle cx="61434.3" cy="18848.8" r="2007.87" /> 
<circle cx="55434.3" cy="18848.8" r="2007.87" /> 
<circle cx="47500" cy="29714.6" r="629.921" /> 
<circle cx="3500" cy="43214.6" r="629.921" /> 
<circle cx="79000" cy="43214.6" r="629.921" /> 
<circle cx="79000" cy="6214.57" r="629.921" /> 
<circle cx="3500" cy="6214.57" r="629.921" /> 
</g> 
</svg>
